<mxfile host="Electron" agent="Mozilla/5.0 (Windows NT 10.0; Win64; x64) AppleWebKit/537.36 (KHTML, like Gecko) draw.io/28.2.5 Chrome/138.0.7204.251 Electron/37.6.1 Safari/537.36" version="28.2.5" pages="4">
  <diagram name="Regis" id="JiZUztChwHqhcYP215OK">
    <mxGraphModel dx="1489" dy="943" grid="1" gridSize="10" guides="1" tooltips="1" connect="1" arrows="1" fold="1" page="1" pageScale="1" pageWidth="850" pageHeight="1100" math="0" shadow="0">
      <root>
        <mxCell id="0" />
        <mxCell id="1" parent="0" />
        <mxCell id="bdz7mE5qC4GTnXo5MI5p-3" value="" style="edgeStyle=orthogonalEdgeStyle;rounded=0;orthogonalLoop=1;jettySize=auto;html=1;" parent="1" source="bdz7mE5qC4GTnXo5MI5p-1" edge="1">
          <mxGeometry relative="1" as="geometry">
            <mxPoint x="425" y="110" as="targetPoint" />
          </mxGeometry>
        </mxCell>
        <mxCell id="bdz7mE5qC4GTnXo5MI5p-1" value="Start" style="ellipse;whiteSpace=wrap;html=1;" parent="1" vertex="1">
          <mxGeometry x="390" y="40" width="70" height="40" as="geometry" />
        </mxCell>
        <mxCell id="bdz7mE5qC4GTnXo5MI5p-8" value="" style="edgeStyle=orthogonalEdgeStyle;rounded=0;orthogonalLoop=1;jettySize=auto;html=1;" parent="1" source="bdz7mE5qC4GTnXo5MI5p-2" edge="1">
          <mxGeometry relative="1" as="geometry">
            <mxPoint x="425" y="200" as="targetPoint" />
          </mxGeometry>
        </mxCell>
        <mxCell id="bdz7mE5qC4GTnXo5MI5p-2" value="&lt;div&gt;&lt;font style=&quot;font-size: 10px;&quot;&gt;output&lt;/font&gt;&lt;/div&gt;&lt;font style=&quot;font-size: 10px;&quot;&gt;&quot;Selamat datang di blog daftar drama korea favorit dunia!&quot;&lt;/font&gt;&lt;div&gt;&lt;font style=&quot;font-size: 10px;&quot;&gt;1. Login&lt;/font&gt;&lt;/div&gt;&lt;div&gt;&lt;font style=&quot;font-size: 10px;&quot;&gt;2. Registrasi&lt;/font&gt;&lt;/div&gt;" style="shape=parallelogram;perimeter=parallelogramPerimeter;whiteSpace=wrap;html=1;fixedSize=1;" parent="1" vertex="1">
          <mxGeometry x="285" y="110" width="280" height="60" as="geometry" />
        </mxCell>
        <mxCell id="bdz7mE5qC4GTnXo5MI5p-6" value="" style="endArrow=classic;html=1;rounded=0;exitX=0.911;exitY=1;exitDx=0;exitDy=0;exitPerimeter=0;" parent="1" source="bdz7mE5qC4GTnXo5MI5p-2" edge="1">
          <mxGeometry width="50" height="50" relative="1" as="geometry">
            <mxPoint x="510" y="210" as="sourcePoint" />
            <mxPoint x="570" y="170" as="targetPoint" />
          </mxGeometry>
        </mxCell>
        <mxCell id="bdz7mE5qC4GTnXo5MI5p-7" value="&lt;font style=&quot;font-size: 11px;&quot;&gt;input&lt;/font&gt;&lt;div&gt;&lt;font style=&quot;font-size: 11px;&quot;&gt;opsi&lt;/font&gt;&lt;/div&gt;" style="shape=parallelogram;perimeter=parallelogramPerimeter;whiteSpace=wrap;html=1;fixedSize=1;" parent="1" vertex="1">
          <mxGeometry x="379" y="200" width="92" height="40" as="geometry" />
        </mxCell>
        <mxCell id="bdz7mE5qC4GTnXo5MI5p-9" value="" style="endArrow=classic;html=1;rounded=0;entryX=0.25;entryY=0;entryDx=0;entryDy=0;" parent="1" target="bdz7mE5qC4GTnXo5MI5p-7" edge="1">
          <mxGeometry width="50" height="50" relative="1" as="geometry">
            <mxPoint x="370" y="200" as="sourcePoint" />
            <mxPoint x="560" y="160" as="targetPoint" />
          </mxGeometry>
        </mxCell>
        <mxCell id="bdz7mE5qC4GTnXo5MI5p-10" value="&lt;font style=&quot;font-size: 11px;&quot;&gt;if opsi==2&lt;/font&gt;" style="rhombus;whiteSpace=wrap;html=1;" parent="1" vertex="1">
          <mxGeometry x="388" y="270" width="75" height="70" as="geometry" />
        </mxCell>
        <mxCell id="bdz7mE5qC4GTnXo5MI5p-12" value="" style="endArrow=classic;html=1;rounded=0;exitX=0.5;exitY=1;exitDx=0;exitDy=0;" parent="1" source="bdz7mE5qC4GTnXo5MI5p-7" edge="1">
          <mxGeometry width="50" height="50" relative="1" as="geometry">
            <mxPoint x="480" y="300" as="sourcePoint" />
            <mxPoint x="425" y="270" as="targetPoint" />
          </mxGeometry>
        </mxCell>
        <mxCell id="bdz7mE5qC4GTnXo5MI5p-13" value="" style="endArrow=classic;html=1;rounded=0;exitX=0.5;exitY=1;exitDx=0;exitDy=0;entryX=0.5;entryY=0;entryDx=0;entryDy=0;" parent="1" source="bdz7mE5qC4GTnXo5MI5p-10" target="bdz7mE5qC4GTnXo5MI5p-14" edge="1">
          <mxGeometry width="50" height="50" relative="1" as="geometry">
            <mxPoint x="480" y="300" as="sourcePoint" />
            <mxPoint x="426" y="370" as="targetPoint" />
          </mxGeometry>
        </mxCell>
        <mxCell id="bdz7mE5qC4GTnXo5MI5p-14" value="&lt;span style=&quot;font-size: 10px;&quot;&gt;output&lt;/span&gt;&lt;div&gt;&lt;span style=&quot;font-size: 10px;&quot;&gt;&quot;Silahkan registrasi member!&quot;&lt;/span&gt;&lt;/div&gt;" style="shape=parallelogram;perimeter=parallelogramPerimeter;whiteSpace=wrap;html=1;fixedSize=1;" parent="1" vertex="1">
          <mxGeometry x="345" y="380" width="160" height="40" as="geometry" />
        </mxCell>
        <mxCell id="bdz7mE5qC4GTnXo5MI5p-15" value="" style="endArrow=classic;html=1;rounded=0;" parent="1" edge="1">
          <mxGeometry width="50" height="50" relative="1" as="geometry">
            <mxPoint x="485.5" y="420" as="sourcePoint" />
            <mxPoint x="515.5" y="420" as="targetPoint" />
          </mxGeometry>
        </mxCell>
        <mxCell id="bdz7mE5qC4GTnXo5MI5p-17" value="" style="endArrow=classic;html=1;rounded=0;exitX=1;exitY=0.5;exitDx=0;exitDy=0;" parent="1" source="bdz7mE5qC4GTnXo5MI5p-10" edge="1">
          <mxGeometry width="50" height="50" relative="1" as="geometry">
            <mxPoint x="480" y="300" as="sourcePoint" />
            <mxPoint x="580" y="305" as="targetPoint" />
          </mxGeometry>
        </mxCell>
        <mxCell id="bdz7mE5qC4GTnXo5MI5p-18" value="&lt;font&gt;True&lt;/font&gt;" style="text;html=1;align=center;verticalAlign=middle;resizable=0;points=[];autosize=1;strokeColor=none;fillColor=none;" parent="1" vertex="1">
          <mxGeometry x="421" y="340" width="50" height="30" as="geometry" />
        </mxCell>
        <mxCell id="bdz7mE5qC4GTnXo5MI5p-21" value="&lt;font style=&quot;font-size: 11px;&quot;&gt;input&lt;/font&gt;&lt;div&gt;&lt;font style=&quot;font-size: 11px;&quot;&gt;usn_baru dan&lt;/font&gt;&lt;/div&gt;&lt;div&gt;&lt;font style=&quot;font-size: 11px;&quot;&gt;pw_baru&lt;/font&gt;&lt;/div&gt;" style="shape=parallelogram;perimeter=parallelogramPerimeter;whiteSpace=wrap;html=1;fixedSize=1;" parent="1" vertex="1">
          <mxGeometry x="365" y="448" width="120" height="52" as="geometry" />
        </mxCell>
        <mxCell id="bdz7mE5qC4GTnXo5MI5p-22" value="" style="endArrow=classic;html=1;rounded=0;" parent="1" edge="1">
          <mxGeometry width="50" height="50" relative="1" as="geometry">
            <mxPoint x="358" y="448" as="sourcePoint" />
            <mxPoint x="388" y="448" as="targetPoint" />
          </mxGeometry>
        </mxCell>
        <mxCell id="bdz7mE5qC4GTnXo5MI5p-24" value="&lt;span style=&quot;font-size: 11px;&quot;&gt;if usn baru in&amp;nbsp;&lt;/span&gt;&lt;div&gt;&lt;span style=&quot;font-size: 11px;&quot;&gt;usn terdaftar&lt;/span&gt;&lt;/div&gt;" style="rhombus;whiteSpace=wrap;html=1;" parent="1" vertex="1">
          <mxGeometry x="365" y="525" width="120" height="60" as="geometry" />
        </mxCell>
        <mxCell id="bdz7mE5qC4GTnXo5MI5p-26" value="True" style="text;html=1;align=center;verticalAlign=middle;resizable=0;points=[];autosize=1;strokeColor=none;fillColor=none;" parent="1" vertex="1">
          <mxGeometry x="421" y="585" width="50" height="30" as="geometry" />
        </mxCell>
        <mxCell id="bdz7mE5qC4GTnXo5MI5p-27" value="&lt;font style=&quot;font-size: 11px;&quot;&gt;output&lt;/font&gt;&lt;div&gt;&lt;font style=&quot;font-size: 11px;&quot;&gt;&quot;Username telah dipakai!&quot;&lt;/font&gt;&lt;/div&gt;" style="shape=parallelogram;perimeter=parallelogramPerimeter;whiteSpace=wrap;html=1;fixedSize=1;" parent="1" vertex="1">
          <mxGeometry x="365.5" y="624" width="120" height="50" as="geometry" />
        </mxCell>
        <mxCell id="bdz7mE5qC4GTnXo5MI5p-28" value="" style="endArrow=classic;html=1;rounded=0;exitX=0.83;exitY=0.979;exitDx=0;exitDy=0;exitPerimeter=0;" parent="1" source="bdz7mE5qC4GTnXo5MI5p-27" edge="1">
          <mxGeometry width="50" height="50" relative="1" as="geometry">
            <mxPoint x="562" y="605" as="sourcePoint" />
            <mxPoint x="500" y="673" as="targetPoint" />
          </mxGeometry>
        </mxCell>
        <mxCell id="bdz7mE5qC4GTnXo5MI5p-30" value="" style="endArrow=classic;html=1;rounded=0;exitX=0.5;exitY=1;exitDx=0;exitDy=0;" parent="1" source="bdz7mE5qC4GTnXo5MI5p-24" edge="1">
          <mxGeometry width="50" height="50" relative="1" as="geometry">
            <mxPoint x="642" y="655" as="sourcePoint" />
            <mxPoint x="425" y="625" as="targetPoint" />
          </mxGeometry>
        </mxCell>
        <mxCell id="SJj7UlldCI5LGYs4Ebn2-1" value="" style="endArrow=classic;html=1;rounded=0;" parent="1" edge="1">
          <mxGeometry width="50" height="50" relative="1" as="geometry">
            <mxPoint x="424" y="420" as="sourcePoint" />
            <mxPoint x="424" y="449" as="targetPoint" />
          </mxGeometry>
        </mxCell>
        <mxCell id="SJj7UlldCI5LGYs4Ebn2-2" value="" style="endArrow=classic;html=1;rounded=0;exitX=0.5;exitY=1;exitDx=0;exitDy=0;entryX=0.5;entryY=0;entryDx=0;entryDy=0;" parent="1" source="bdz7mE5qC4GTnXo5MI5p-21" target="bdz7mE5qC4GTnXo5MI5p-24" edge="1">
          <mxGeometry width="50" height="50" relative="1" as="geometry">
            <mxPoint x="790" y="740" as="sourcePoint" />
            <mxPoint x="840" y="690" as="targetPoint" />
          </mxGeometry>
        </mxCell>
        <mxCell id="SJj7UlldCI5LGYs4Ebn2-13" value="False" style="text;html=1;align=center;verticalAlign=middle;resizable=0;points=[];autosize=1;strokeColor=none;fillColor=none;" parent="1" vertex="1">
          <mxGeometry x="490" y="280" width="50" height="30" as="geometry" />
        </mxCell>
        <mxCell id="SJj7UlldCI5LGYs4Ebn2-14" value="&lt;font style=&quot;font-size: 11px;&quot;&gt;elif opsi==1&lt;/font&gt;" style="rhombus;whiteSpace=wrap;html=1;" parent="1" vertex="1">
          <mxGeometry x="580" y="267.5" width="75" height="75" as="geometry" />
        </mxCell>
        <mxCell id="SJj7UlldCI5LGYs4Ebn2-15" value="" style="endArrow=classic;html=1;rounded=0;exitX=0.5;exitY=1;exitDx=0;exitDy=0;" parent="1" source="SJj7UlldCI5LGYs4Ebn2-14" edge="1">
          <mxGeometry width="50" height="50" relative="1" as="geometry">
            <mxPoint x="600" y="480" as="sourcePoint" />
            <mxPoint x="618" y="380" as="targetPoint" />
          </mxGeometry>
        </mxCell>
        <mxCell id="SJj7UlldCI5LGYs4Ebn2-16" value="True" style="text;html=1;align=center;verticalAlign=middle;resizable=0;points=[];autosize=1;strokeColor=none;fillColor=none;" parent="1" vertex="1">
          <mxGeometry x="608" y="342.5" width="50" height="30" as="geometry" />
        </mxCell>
        <mxCell id="SJj7UlldCI5LGYs4Ebn2-45" value="" style="endArrow=classic;html=1;rounded=0;exitX=1;exitY=0.5;exitDx=0;exitDy=0;" parent="1" source="SJj7UlldCI5LGYs4Ebn2-14" edge="1">
          <mxGeometry width="50" height="50" relative="1" as="geometry">
            <mxPoint x="790" y="430" as="sourcePoint" />
            <mxPoint x="710" y="305" as="targetPoint" />
          </mxGeometry>
        </mxCell>
        <mxCell id="SJj7UlldCI5LGYs4Ebn2-46" value="False" style="text;html=1;align=center;verticalAlign=middle;resizable=0;points=[];autosize=1;strokeColor=none;fillColor=none;" parent="1" vertex="1">
          <mxGeometry x="655" y="278" width="50" height="30" as="geometry" />
        </mxCell>
        <mxCell id="SJj7UlldCI5LGYs4Ebn2-47" value="output&lt;div&gt;&quot;Error! Pilihan tidak valid!&quot;&lt;/div&gt;" style="shape=parallelogram;perimeter=parallelogramPerimeter;whiteSpace=wrap;html=1;fixedSize=1;" parent="1" vertex="1">
          <mxGeometry x="698" y="278" width="170" height="60" as="geometry" />
        </mxCell>
        <mxCell id="SJj7UlldCI5LGYs4Ebn2-48" value="" style="endArrow=classic;html=1;rounded=0;exitX=0.75;exitY=1;exitDx=0;exitDy=0;" parent="1" edge="1">
          <mxGeometry width="50" height="50" relative="1" as="geometry">
            <mxPoint x="844.5" y="337.95" as="sourcePoint" />
            <mxPoint x="881.5" y="338.42" as="targetPoint" />
          </mxGeometry>
        </mxCell>
        <mxCell id="SJj7UlldCI5LGYs4Ebn2-49" value="" style="endArrow=classic;html=1;rounded=0;exitX=0.5;exitY=0;exitDx=0;exitDy=0;" parent="1" source="SJj7UlldCI5LGYs4Ebn2-47" target="bdz7mE5qC4GTnXo5MI5p-7" edge="1">
          <mxGeometry width="50" height="50" relative="1" as="geometry">
            <mxPoint x="790" y="370" as="sourcePoint" />
            <mxPoint x="840" y="320" as="targetPoint" />
            <Array as="points">
              <mxPoint x="783" y="220" />
            </Array>
          </mxGeometry>
        </mxCell>
        <mxCell id="SJj7UlldCI5LGYs4Ebn2-106" value="&lt;font style=&quot;font-size: 11px;&quot;&gt;output&lt;/font&gt;&lt;div&gt;&lt;span style=&quot;font-size: 11px;&quot;&gt;&quot;Registrasi berhasil, silahkan login!&quot;&lt;/span&gt;&lt;/div&gt;" style="shape=parallelogram;perimeter=parallelogramPerimeter;whiteSpace=wrap;html=1;fixedSize=1;" parent="1" vertex="1">
          <mxGeometry x="543" y="530" width="120" height="50" as="geometry" />
        </mxCell>
        <mxCell id="SJj7UlldCI5LGYs4Ebn2-107" value="" style="endArrow=classic;html=1;rounded=0;" parent="1" edge="1">
          <mxGeometry width="50" height="50" relative="1" as="geometry">
            <mxPoint x="643" y="578.75" as="sourcePoint" />
            <mxPoint x="674" y="578.75" as="targetPoint" />
          </mxGeometry>
        </mxCell>
        <mxCell id="SJj7UlldCI5LGYs4Ebn2-108" value="&lt;font style=&quot;font-size: 11px;&quot;&gt;input&lt;/font&gt;&lt;div&gt;&lt;font style=&quot;font-size: 11px;&quot;&gt;usn_login dan&lt;/font&gt;&lt;/div&gt;&lt;div&gt;&lt;font style=&quot;font-size: 11px;&quot;&gt;pw_login&lt;/font&gt;&lt;/div&gt;" style="shape=parallelogram;perimeter=parallelogramPerimeter;whiteSpace=wrap;html=1;fixedSize=1;" parent="1" vertex="1">
          <mxGeometry x="543" y="615" width="120" height="52" as="geometry" />
        </mxCell>
        <mxCell id="SJj7UlldCI5LGYs4Ebn2-109" value="" style="endArrow=classic;html=1;rounded=0;" parent="1" edge="1">
          <mxGeometry width="50" height="50" relative="1" as="geometry">
            <mxPoint x="533" y="616" as="sourcePoint" />
            <mxPoint x="563" y="616" as="targetPoint" />
          </mxGeometry>
        </mxCell>
        <mxCell id="SJj7UlldCI5LGYs4Ebn2-110" value="&lt;span style=&quot;font-size: 11px;&quot;&gt;if usn_login!=usn_baru or pw_login!=pw_baru&lt;/span&gt;" style="rhombus;whiteSpace=wrap;html=1;" parent="1" vertex="1">
          <mxGeometry x="518" y="695" width="170" height="80" as="geometry" />
        </mxCell>
        <mxCell id="SJj7UlldCI5LGYs4Ebn2-111" value="" style="endArrow=classic;html=1;rounded=0;exitX=0.5;exitY=1;exitDx=0;exitDy=0;" parent="1" edge="1">
          <mxGeometry width="50" height="50" relative="1" as="geometry">
            <mxPoint x="602.57" y="667" as="sourcePoint" />
            <mxPoint x="602.57" y="697" as="targetPoint" />
          </mxGeometry>
        </mxCell>
        <mxCell id="SJj7UlldCI5LGYs4Ebn2-112" value="&lt;font style=&quot;font-size: 11px;&quot;&gt;True&lt;/font&gt;" style="text;html=1;align=center;verticalAlign=middle;resizable=0;points=[];autosize=1;strokeColor=none;fillColor=none;" parent="1" vertex="1">
          <mxGeometry x="598" y="775" width="50" height="30" as="geometry" />
        </mxCell>
        <mxCell id="SJj7UlldCI5LGYs4Ebn2-113" value="&lt;font style=&quot;font-size: 11px;&quot;&gt;output&lt;/font&gt;&lt;div&gt;&lt;font style=&quot;font-size: 11px;&quot;&gt;&quot;Format salah, login gagal!!&quot;&lt;/font&gt;&lt;/div&gt;" style="shape=parallelogram;perimeter=parallelogramPerimeter;whiteSpace=wrap;html=1;fixedSize=1;" parent="1" vertex="1">
          <mxGeometry x="543" y="840" width="120" height="50" as="geometry" />
        </mxCell>
        <mxCell id="SJj7UlldCI5LGYs4Ebn2-114" value="" style="endArrow=classic;html=1;rounded=0;exitX=0.83;exitY=0.979;exitDx=0;exitDy=0;exitPerimeter=0;" parent="1" edge="1">
          <mxGeometry width="50" height="50" relative="1" as="geometry">
            <mxPoint x="640" y="890" as="sourcePoint" />
            <mxPoint x="670" y="890" as="targetPoint" />
          </mxGeometry>
        </mxCell>
        <mxCell id="SJj7UlldCI5LGYs4Ebn2-115" value="" style="endArrow=classic;html=1;rounded=0;exitX=0.5;exitY=1;exitDx=0;exitDy=0;entryX=0.5;entryY=0;entryDx=0;entryDy=0;" parent="1" source="SJj7UlldCI5LGYs4Ebn2-110" edge="1" target="SJj7UlldCI5LGYs4Ebn2-113">
          <mxGeometry width="50" height="50" relative="1" as="geometry">
            <mxPoint x="825" y="865" as="sourcePoint" />
            <mxPoint x="603" y="810" as="targetPoint" />
          </mxGeometry>
        </mxCell>
        <mxCell id="SJj7UlldCI5LGYs4Ebn2-116" value="" style="endArrow=classic;html=1;rounded=0;exitX=0.5;exitY=1;exitDx=0;exitDy=0;" parent="1" source="SJj7UlldCI5LGYs4Ebn2-106" edge="1">
          <mxGeometry width="50" height="50" relative="1" as="geometry">
            <mxPoint x="763" y="640" as="sourcePoint" />
            <mxPoint x="603" y="618" as="targetPoint" />
          </mxGeometry>
        </mxCell>
        <mxCell id="SJj7UlldCI5LGYs4Ebn2-117" value="" style="endArrow=classic;html=1;rounded=0;exitX=1;exitY=0.5;exitDx=0;exitDy=0;entryX=0;entryY=0.5;entryDx=0;entryDy=0;" parent="1" source="bdz7mE5qC4GTnXo5MI5p-24" target="SJj7UlldCI5LGYs4Ebn2-106" edge="1">
          <mxGeometry width="50" height="50" relative="1" as="geometry">
            <mxPoint x="590" y="680" as="sourcePoint" />
            <mxPoint x="554" y="557" as="targetPoint" />
          </mxGeometry>
        </mxCell>
        <mxCell id="SJj7UlldCI5LGYs4Ebn2-118" value="&lt;font style=&quot;font-size: 11px;&quot;&gt;output&lt;/font&gt;&lt;div&gt;&lt;font style=&quot;font-size: 11px;&quot;&gt;&quot;Login berhasil!&quot;&lt;/font&gt;&lt;/div&gt;" style="shape=parallelogram;perimeter=parallelogramPerimeter;whiteSpace=wrap;html=1;fixedSize=1;" parent="1" vertex="1">
          <mxGeometry x="900" y="715" width="120" height="40" as="geometry" />
        </mxCell>
        <mxCell id="SJj7UlldCI5LGYs4Ebn2-119" value="" style="endArrow=classic;html=1;rounded=0;exitX=0.83;exitY=0.979;exitDx=0;exitDy=0;exitPerimeter=0;" parent="1" edge="1">
          <mxGeometry width="50" height="50" relative="1" as="geometry">
            <mxPoint x="1000" y="754.57" as="sourcePoint" />
            <mxPoint x="1030" y="754.57" as="targetPoint" />
          </mxGeometry>
        </mxCell>
        <mxCell id="SJj7UlldCI5LGYs4Ebn2-120" value="" style="endArrow=classic;html=1;rounded=0;exitX=1;exitY=0.5;exitDx=0;exitDy=0;" parent="1" source="SJj7UlldCI5LGYs4Ebn2-110" edge="1">
          <mxGeometry width="50" height="50" relative="1" as="geometry">
            <mxPoint x="710" y="611" as="sourcePoint" />
            <mxPoint x="740" y="735" as="targetPoint" />
            <Array as="points">
              <mxPoint x="710" y="735" />
            </Array>
          </mxGeometry>
        </mxCell>
        <mxCell id="SJj7UlldCI5LGYs4Ebn2-121" value="False&amp;nbsp;" style="text;html=1;align=center;verticalAlign=middle;resizable=0;points=[];autosize=1;strokeColor=none;fillColor=none;" parent="1" vertex="1">
          <mxGeometry x="680" y="706" width="60" height="30" as="geometry" />
        </mxCell>
        <mxCell id="SJj7UlldCI5LGYs4Ebn2-122" value="False" style="text;html=1;align=center;verticalAlign=middle;resizable=0;points=[];autosize=1;strokeColor=none;fillColor=none;" parent="1" vertex="1">
          <mxGeometry x="485" y="528" width="50" height="30" as="geometry" />
        </mxCell>
        <mxCell id="SJj7UlldCI5LGYs4Ebn2-123" value="" style="endArrow=classic;html=1;rounded=0;exitX=1;exitY=0.5;exitDx=0;exitDy=0;entryX=1;entryY=0.75;entryDx=0;entryDy=0;" parent="1" source="SJj7UlldCI5LGYs4Ebn2-113" target="SJj7UlldCI5LGYs4Ebn2-108" edge="1">
          <mxGeometry width="50" height="50" relative="1" as="geometry">
            <mxPoint x="670" y="620" as="sourcePoint" />
            <mxPoint x="720" y="570" as="targetPoint" />
            <Array as="points">
              <mxPoint x="1060" y="865" />
              <mxPoint x="1060" y="651" />
            </Array>
          </mxGeometry>
        </mxCell>
        <mxCell id="cU8ZHw_bggIx8L5B_mDR-2" value="" style="verticalLabelPosition=bottom;verticalAlign=top;html=1;shape=offPageConnector;rounded=0;size=0.5;" parent="1" vertex="1">
          <mxGeometry x="588" y="380" width="60" height="60" as="geometry" />
        </mxCell>
        <mxCell id="cU8ZHw_bggIx8L5B_mDR-3" value="&lt;font style=&quot;font-size: 20px;&quot;&gt;1&lt;/font&gt;" style="text;html=1;align=center;verticalAlign=middle;resizable=0;points=[];autosize=1;strokeColor=none;fillColor=none;" parent="1" vertex="1">
          <mxGeometry x="603" y="380" width="30" height="40" as="geometry" />
        </mxCell>
        <mxCell id="5DzpKOg_zmlzgGN2bv2q-2" value="" style="verticalLabelPosition=bottom;verticalAlign=top;html=1;shape=offPageConnector;rounded=0;size=0.5;" parent="1" vertex="1">
          <mxGeometry x="930" y="789" width="60" height="60" as="geometry" />
        </mxCell>
        <mxCell id="5DzpKOg_zmlzgGN2bv2q-3" value="&lt;span style=&quot;font-size: 20px;&quot;&gt;3&lt;/span&gt;" style="text;html=1;align=center;verticalAlign=middle;resizable=0;points=[];autosize=1;strokeColor=none;fillColor=none;" parent="1" vertex="1">
          <mxGeometry x="945" y="789" width="30" height="40" as="geometry" />
        </mxCell>
        <mxCell id="SpbL_eIFljlewfDm1Zae-1" value="" style="endArrow=classic;html=1;rounded=0;exitX=0.5;exitY=1;exitDx=0;exitDy=0;" parent="1" source="SJj7UlldCI5LGYs4Ebn2-118" edge="1">
          <mxGeometry width="50" height="50" relative="1" as="geometry">
            <mxPoint x="790" y="780" as="sourcePoint" />
            <mxPoint x="960" y="790" as="targetPoint" />
          </mxGeometry>
        </mxCell>
        <mxCell id="e2qzC18cUA-EEJeUVPQp-1" value="" style="verticalLabelPosition=bottom;verticalAlign=top;html=1;shape=offPageConnector;rounded=0;size=0.5;" vertex="1" parent="1">
          <mxGeometry x="399" y="756" width="60" height="60" as="geometry" />
        </mxCell>
        <mxCell id="e2qzC18cUA-EEJeUVPQp-2" value="&lt;span style=&quot;font-size: 20px;&quot;&gt;4&lt;/span&gt;" style="text;html=1;align=center;verticalAlign=middle;resizable=0;points=[];autosize=1;strokeColor=none;fillColor=none;" vertex="1" parent="1">
          <mxGeometry x="414" y="756" width="30" height="40" as="geometry" />
        </mxCell>
        <mxCell id="e2qzC18cUA-EEJeUVPQp-3" value="" style="endArrow=classic;html=1;rounded=0;exitX=0.5;exitY=1;exitDx=0;exitDy=0;" edge="1" parent="1" source="e2qzC18cUA-EEJeUVPQp-1">
          <mxGeometry width="50" height="50" relative="1" as="geometry">
            <mxPoint x="746" y="666" as="sourcePoint" />
            <mxPoint x="429" y="856" as="targetPoint" />
          </mxGeometry>
        </mxCell>
        <mxCell id="e2qzC18cUA-EEJeUVPQp-4" value="End" style="ellipse;whiteSpace=wrap;html=1;" vertex="1" parent="1">
          <mxGeometry x="387" y="856" width="80" height="60" as="geometry" />
        </mxCell>
        <mxCell id="e2qzC18cUA-EEJeUVPQp-5" value="" style="endArrow=classic;html=1;rounded=0;exitX=0;exitY=0.5;exitDx=0;exitDy=0;entryX=0;entryY=0.5;entryDx=0;entryDy=0;" edge="1" parent="1" source="bdz7mE5qC4GTnXo5MI5p-27" target="bdz7mE5qC4GTnXo5MI5p-21">
          <mxGeometry width="50" height="50" relative="1" as="geometry">
            <mxPoint x="840" y="480" as="sourcePoint" />
            <mxPoint x="890" y="430" as="targetPoint" />
            <Array as="points">
              <mxPoint x="290" y="650" />
              <mxPoint x="290" y="474" />
            </Array>
          </mxGeometry>
        </mxCell>
        <mxCell id="fuOZtyEnQizHDtbJjAct-1" value="is_admin=False" style="rounded=0;whiteSpace=wrap;html=1;" vertex="1" parent="1">
          <mxGeometry x="740" y="711" width="110" height="50" as="geometry" />
        </mxCell>
        <mxCell id="HiFXyRoiLPcKSQBcT-ZI-1" value="" style="endArrow=classic;html=1;rounded=0;exitX=1;exitY=0.5;exitDx=0;exitDy=0;" edge="1" parent="1" source="fuOZtyEnQizHDtbJjAct-1">
          <mxGeometry width="50" height="50" relative="1" as="geometry">
            <mxPoint x="770" y="660" as="sourcePoint" />
            <mxPoint x="910" y="736" as="targetPoint" />
          </mxGeometry>
        </mxCell>
      </root>
    </mxGraphModel>
  </diagram>
  <diagram id="qr6djR8Erb3W_zAV7whb" name="Login">
    <mxGraphModel dx="1489" dy="943" grid="1" gridSize="10" guides="1" tooltips="1" connect="1" arrows="1" fold="1" page="1" pageScale="1" pageWidth="850" pageHeight="1100" math="0" shadow="0">
      <root>
        <mxCell id="0" />
        <mxCell id="1" parent="0" />
        <mxCell id="7Va5eu2rcZLdLHJ4mg1E-1" value="&lt;span style=&quot;font-size: 10px;&quot;&gt;output&lt;/span&gt;&lt;div&gt;&lt;span style=&quot;font-size: 10px;&quot;&gt;&quot;Silahkan login&quot;&lt;/span&gt;&lt;/div&gt;" style="shape=parallelogram;perimeter=parallelogramPerimeter;whiteSpace=wrap;html=1;fixedSize=1;" parent="1" vertex="1">
          <mxGeometry x="253.5" y="149" width="110" height="40" as="geometry" />
        </mxCell>
        <mxCell id="7Va5eu2rcZLdLHJ4mg1E-2" value="" style="endArrow=classic;html=1;rounded=0;" parent="1" edge="1">
          <mxGeometry width="50" height="50" relative="1" as="geometry">
            <mxPoint x="342" y="189" as="sourcePoint" />
            <mxPoint x="372" y="189" as="targetPoint" />
          </mxGeometry>
        </mxCell>
        <mxCell id="7Va5eu2rcZLdLHJ4mg1E-3" value="" style="endArrow=classic;html=1;rounded=0;exitX=0.5;exitY=1;exitDx=0;exitDy=0;" parent="1" source="7Va5eu2rcZLdLHJ4mg1E-1" edge="1">
          <mxGeometry width="50" height="50" relative="1" as="geometry">
            <mxPoint x="272" y="308" as="sourcePoint" />
            <mxPoint x="309" y="228" as="targetPoint" />
          </mxGeometry>
        </mxCell>
        <mxCell id="7Va5eu2rcZLdLHJ4mg1E-4" value="&lt;font style=&quot;font-size: 11px;&quot;&gt;input&lt;/font&gt;&lt;div&gt;&lt;font style=&quot;font-size: 11px;&quot;&gt;usn_login dan&lt;/font&gt;&lt;/div&gt;&lt;div&gt;&lt;font style=&quot;font-size: 11px;&quot;&gt;pw_login&lt;/font&gt;&lt;/div&gt;" style="shape=parallelogram;perimeter=parallelogramPerimeter;whiteSpace=wrap;html=1;fixedSize=1;" parent="1" vertex="1">
          <mxGeometry x="250" y="228" width="113.5" height="52" as="geometry" />
        </mxCell>
        <mxCell id="7Va5eu2rcZLdLHJ4mg1E-5" value="" style="endArrow=classic;html=1;rounded=0;exitX=0.5;exitY=1;exitDx=0;exitDy=0;" parent="1" source="7Va5eu2rcZLdLHJ4mg1E-4" edge="1">
          <mxGeometry width="50" height="50" relative="1" as="geometry">
            <mxPoint x="272" y="308" as="sourcePoint" />
            <mxPoint x="307" y="318" as="targetPoint" />
          </mxGeometry>
        </mxCell>
        <mxCell id="7Va5eu2rcZLdLHJ4mg1E-6" value="&lt;span style=&quot;font-size: 11px;&quot;&gt;if usn_login and pw_login in admin terdaftar&lt;/span&gt;" style="rhombus;whiteSpace=wrap;html=1;" parent="1" vertex="1">
          <mxGeometry x="246.75" y="318" width="120" height="110" as="geometry" />
        </mxCell>
        <mxCell id="7Va5eu2rcZLdLHJ4mg1E-7" value="" style="endArrow=classic;html=1;rounded=0;exitX=0.5;exitY=1;exitDx=0;exitDy=0;" parent="1" edge="1">
          <mxGeometry width="50" height="50" relative="1" as="geometry">
            <mxPoint x="306.22" y="428" as="sourcePoint" />
            <mxPoint x="306" y="470" as="targetPoint" />
          </mxGeometry>
        </mxCell>
        <mxCell id="7Va5eu2rcZLdLHJ4mg1E-8" value="True" style="text;html=1;align=center;verticalAlign=middle;resizable=0;points=[];autosize=1;strokeColor=none;fillColor=none;" parent="1" vertex="1">
          <mxGeometry x="300" y="427" width="50" height="30" as="geometry" />
        </mxCell>
        <mxCell id="7Va5eu2rcZLdLHJ4mg1E-9" value="is_admin=True" style="rounded=0;whiteSpace=wrap;html=1;" parent="1" vertex="1">
          <mxGeometry x="264.1300000000001" y="468" width="85.25" height="40" as="geometry" />
        </mxCell>
        <mxCell id="7Va5eu2rcZLdLHJ4mg1E-10" value="" style="endArrow=classic;html=1;rounded=0;exitX=0.5;exitY=1;exitDx=0;exitDy=0;" parent="1" source="7Va5eu2rcZLdLHJ4mg1E-9" edge="1">
          <mxGeometry width="50" height="50" relative="1" as="geometry">
            <mxPoint x="382" y="438" as="sourcePoint" />
            <mxPoint x="307" y="538" as="targetPoint" />
          </mxGeometry>
        </mxCell>
        <mxCell id="7Va5eu2rcZLdLHJ4mg1E-11" value="output&lt;div&gt;&quot;Login admin berhasil!&quot;&lt;/div&gt;" style="shape=parallelogram;perimeter=parallelogramPerimeter;whiteSpace=wrap;html=1;fixedSize=1;" parent="1" vertex="1">
          <mxGeometry x="245" y="538" width="120" height="50" as="geometry" />
        </mxCell>
        <mxCell id="7Va5eu2rcZLdLHJ4mg1E-12" value="" style="endArrow=classic;html=1;rounded=0;exitX=0.75;exitY=1;exitDx=0;exitDy=0;" parent="1" source="7Va5eu2rcZLdLHJ4mg1E-11" edge="1">
          <mxGeometry width="50" height="50" relative="1" as="geometry">
            <mxPoint x="392" y="458" as="sourcePoint" />
            <mxPoint x="372" y="588" as="targetPoint" />
          </mxGeometry>
        </mxCell>
        <mxCell id="7Va5eu2rcZLdLHJ4mg1E-13" value="" style="endArrow=classic;html=1;rounded=0;exitX=1;exitY=0.5;exitDx=0;exitDy=0;" parent="1" source="7Va5eu2rcZLdLHJ4mg1E-6" edge="1">
          <mxGeometry width="50" height="50" relative="1" as="geometry">
            <mxPoint x="522" y="358" as="sourcePoint" />
            <mxPoint x="412" y="373" as="targetPoint" />
          </mxGeometry>
        </mxCell>
        <mxCell id="7Va5eu2rcZLdLHJ4mg1E-14" value="False" style="text;html=1;align=center;verticalAlign=middle;resizable=0;points=[];autosize=1;strokeColor=none;fillColor=none;" parent="1" vertex="1">
          <mxGeometry x="362" y="348" width="50" height="30" as="geometry" />
        </mxCell>
        <mxCell id="7Va5eu2rcZLdLHJ4mg1E-15" value="&lt;font style=&quot;font-size: 11px;&quot;&gt;elif usn_login and pw_login in member terdaftar&lt;/font&gt;" style="rhombus;whiteSpace=wrap;html=1;" parent="1" vertex="1">
          <mxGeometry x="412" y="317" width="120" height="110" as="geometry" />
        </mxCell>
        <mxCell id="7Va5eu2rcZLdLHJ4mg1E-16" value="" style="endArrow=classic;html=1;rounded=0;exitX=0.5;exitY=1;exitDx=0;exitDy=0;" parent="1" edge="1">
          <mxGeometry width="50" height="50" relative="1" as="geometry">
            <mxPoint x="471.22" y="427" as="sourcePoint" />
            <mxPoint x="471.22" y="465" as="targetPoint" />
          </mxGeometry>
        </mxCell>
        <mxCell id="7Va5eu2rcZLdLHJ4mg1E-17" value="True" style="text;html=1;align=center;verticalAlign=middle;resizable=0;points=[];autosize=1;strokeColor=none;fillColor=none;" parent="1" vertex="1">
          <mxGeometry x="462" y="427" width="50" height="30" as="geometry" />
        </mxCell>
        <mxCell id="7Va5eu2rcZLdLHJ4mg1E-18" value="is_admin=False" style="rounded=0;whiteSpace=wrap;html=1;" parent="1" vertex="1">
          <mxGeometry x="421.8699999999999" y="463" width="100.25" height="40" as="geometry" />
        </mxCell>
        <mxCell id="7Va5eu2rcZLdLHJ4mg1E-19" value="" style="endArrow=classic;html=1;rounded=0;exitX=0.5;exitY=1;exitDx=0;exitDy=0;" parent="1" source="7Va5eu2rcZLdLHJ4mg1E-18" edge="1">
          <mxGeometry width="50" height="50" relative="1" as="geometry">
            <mxPoint x="547" y="437" as="sourcePoint" />
            <mxPoint x="472" y="537" as="targetPoint" />
          </mxGeometry>
        </mxCell>
        <mxCell id="7Va5eu2rcZLdLHJ4mg1E-20" value="output&lt;div&gt;&quot;Login member berhasil!&quot;&lt;/div&gt;" style="shape=parallelogram;perimeter=parallelogramPerimeter;whiteSpace=wrap;html=1;fixedSize=1;" parent="1" vertex="1">
          <mxGeometry x="410" y="537" width="120" height="50" as="geometry" />
        </mxCell>
        <mxCell id="7Va5eu2rcZLdLHJ4mg1E-21" value="" style="endArrow=classic;html=1;rounded=0;exitX=0.75;exitY=1;exitDx=0;exitDy=0;" parent="1" source="7Va5eu2rcZLdLHJ4mg1E-20" edge="1">
          <mxGeometry width="50" height="50" relative="1" as="geometry">
            <mxPoint x="557" y="457" as="sourcePoint" />
            <mxPoint x="537" y="587" as="targetPoint" />
          </mxGeometry>
        </mxCell>
        <mxCell id="7Va5eu2rcZLdLHJ4mg1E-22" value="" style="endArrow=classic;html=1;rounded=0;exitX=1;exitY=0.5;exitDx=0;exitDy=0;" parent="1" source="7Va5eu2rcZLdLHJ4mg1E-15" edge="1">
          <mxGeometry width="50" height="50" relative="1" as="geometry">
            <mxPoint x="682" y="568" as="sourcePoint" />
            <mxPoint x="582" y="372" as="targetPoint" />
          </mxGeometry>
        </mxCell>
        <mxCell id="7Va5eu2rcZLdLHJ4mg1E-23" value="False" style="text;html=1;align=center;verticalAlign=middle;resizable=0;points=[];autosize=1;strokeColor=none;fillColor=none;" parent="1" vertex="1">
          <mxGeometry x="530" y="348" width="50" height="30" as="geometry" />
        </mxCell>
        <mxCell id="7Va5eu2rcZLdLHJ4mg1E-24" value="output&lt;div&gt;&quot;Login gagal!&quot;&lt;/div&gt;" style="shape=parallelogram;perimeter=parallelogramPerimeter;whiteSpace=wrap;html=1;fixedSize=1;" parent="1" vertex="1">
          <mxGeometry x="572" y="346.47" width="120" height="50" as="geometry" />
        </mxCell>
        <mxCell id="7Va5eu2rcZLdLHJ4mg1E-25" value="" style="endArrow=classic;html=1;rounded=0;exitX=0.75;exitY=1;exitDx=0;exitDy=0;" parent="1" source="7Va5eu2rcZLdLHJ4mg1E-24" edge="1">
          <mxGeometry width="50" height="50" relative="1" as="geometry">
            <mxPoint x="719" y="266.47" as="sourcePoint" />
            <mxPoint x="699" y="396.47" as="targetPoint" />
          </mxGeometry>
        </mxCell>
        <mxCell id="7Va5eu2rcZLdLHJ4mg1E-26" value="" style="endArrow=classic;html=1;rounded=0;exitX=0.5;exitY=0;exitDx=0;exitDy=0;entryX=1;entryY=0.5;entryDx=0;entryDy=0;" parent="1" source="7Va5eu2rcZLdLHJ4mg1E-24" target="7Va5eu2rcZLdLHJ4mg1E-4" edge="1">
          <mxGeometry width="50" height="50" relative="1" as="geometry">
            <mxPoint x="662" y="418" as="sourcePoint" />
            <mxPoint x="712" y="368" as="targetPoint" />
            <Array as="points">
              <mxPoint x="632" y="254" />
            </Array>
          </mxGeometry>
        </mxCell>
        <mxCell id="7Va5eu2rcZLdLHJ4mg1E-29" value="" style="verticalLabelPosition=bottom;verticalAlign=top;html=1;shape=offPageConnector;rounded=0;size=0.5;" parent="1" vertex="1">
          <mxGeometry x="278.5" y="50" width="60" height="60" as="geometry" />
        </mxCell>
        <mxCell id="7Va5eu2rcZLdLHJ4mg1E-30" value="&lt;font style=&quot;font-size: 20px;&quot;&gt;1&lt;/font&gt;" style="text;html=1;align=center;verticalAlign=middle;resizable=0;points=[];autosize=1;strokeColor=none;fillColor=none;" parent="1" vertex="1">
          <mxGeometry x="293.5" y="50" width="30" height="40" as="geometry" />
        </mxCell>
        <mxCell id="HEokD8pi-4lOuuZFcUgd-3" value="" style="verticalLabelPosition=bottom;verticalAlign=top;html=1;shape=offPageConnector;rounded=0;size=0.5;" parent="1" vertex="1">
          <mxGeometry x="280.5" y="669" width="60" height="60" as="geometry" />
        </mxCell>
        <mxCell id="bxmy8nteCBDZHZLm3RZC-2" value="" style="endArrow=classic;html=1;rounded=0;entryX=0.155;entryY=0.05;entryDx=0;entryDy=0;entryPerimeter=0;" parent="1" edge="1">
          <mxGeometry width="50" height="50" relative="1" as="geometry">
            <mxPoint x="233" y="230" as="sourcePoint" />
            <mxPoint x="270.5925" y="230.60000000000002" as="targetPoint" />
          </mxGeometry>
        </mxCell>
        <mxCell id="tAXgtypq5ax3VRJ6iImE-1" value="" style="endArrow=classic;html=1;rounded=0;exitX=0.536;exitY=1.003;exitDx=0;exitDy=0;exitPerimeter=0;entryX=0.639;entryY=-0.038;entryDx=0;entryDy=0;entryPerimeter=0;" parent="1" source="7Va5eu2rcZLdLHJ4mg1E-11" edge="1">
          <mxGeometry width="50" height="50" relative="1" as="geometry">
            <mxPoint x="480" y="640" as="sourcePoint" />
            <mxPoint x="309.6700000000001" y="668.48" as="targetPoint" />
          </mxGeometry>
        </mxCell>
        <mxCell id="tAXgtypq5ax3VRJ6iImE-2" value="&lt;span style=&quot;font-size: 20px;&quot;&gt;2&lt;/span&gt;" style="text;html=1;align=center;verticalAlign=middle;resizable=0;points=[];autosize=1;strokeColor=none;fillColor=none;" parent="1" vertex="1">
          <mxGeometry x="295.5" y="669" width="30" height="40" as="geometry" />
        </mxCell>
        <mxCell id="ixEc3Hto4sZF6tSrJ4R3-1" value="" style="endArrow=classic;html=1;rounded=0;exitX=0.5;exitY=1;exitDx=0;exitDy=0;entryX=0.5;entryY=0;entryDx=0;entryDy=0;" edge="1" parent="1" source="7Va5eu2rcZLdLHJ4mg1E-29" target="7Va5eu2rcZLdLHJ4mg1E-1">
          <mxGeometry width="50" height="50" relative="1" as="geometry">
            <mxPoint x="560" y="400" as="sourcePoint" />
            <mxPoint x="610" y="350" as="targetPoint" />
          </mxGeometry>
        </mxCell>
        <mxCell id="aTfKV-AGUr5C_di1pJN4-1" value="" style="verticalLabelPosition=bottom;verticalAlign=top;html=1;shape=offPageConnector;rounded=0;size=0.5;" vertex="1" parent="1">
          <mxGeometry x="439.5" y="668" width="60" height="60" as="geometry" />
        </mxCell>
        <mxCell id="aTfKV-AGUr5C_di1pJN4-2" value="" style="endArrow=classic;html=1;rounded=0;exitX=0.536;exitY=1.003;exitDx=0;exitDy=0;exitPerimeter=0;entryX=0.639;entryY=-0.038;entryDx=0;entryDy=0;entryPerimeter=0;" edge="1" parent="1">
          <mxGeometry width="50" height="50" relative="1" as="geometry">
            <mxPoint x="468" y="587" as="sourcePoint" />
            <mxPoint x="468.6700000000001" y="667.48" as="targetPoint" />
          </mxGeometry>
        </mxCell>
        <mxCell id="aTfKV-AGUr5C_di1pJN4-3" value="&lt;span style=&quot;font-size: 20px;&quot;&gt;3&lt;/span&gt;" style="text;html=1;align=center;verticalAlign=middle;resizable=0;points=[];autosize=1;strokeColor=none;fillColor=none;" vertex="1" parent="1">
          <mxGeometry x="454.5" y="668" width="30" height="40" as="geometry" />
        </mxCell>
      </root>
    </mxGraphModel>
  </diagram>
  <diagram id="rP75DixowVUO9uzGVfM4" name="Menu_admin">
    <mxGraphModel dx="1042" dy="660" grid="1" gridSize="10" guides="1" tooltips="1" connect="1" arrows="1" fold="1" page="1" pageScale="1" pageWidth="850" pageHeight="1100" math="0" shadow="0">
      <root>
        <mxCell id="0" />
        <mxCell id="1" parent="0" />
        <mxCell id="Sp9nMRfrtx3zFeuTPP1S-1" value="" style="verticalLabelPosition=bottom;verticalAlign=top;html=1;shape=offPageConnector;rounded=0;size=0.5;" parent="1" vertex="1">
          <mxGeometry x="380" y="60" width="60" height="60" as="geometry" />
        </mxCell>
        <mxCell id="Sp9nMRfrtx3zFeuTPP1S-2" value="&lt;span style=&quot;font-size: 20px;&quot;&gt;2&lt;/span&gt;" style="text;html=1;align=center;verticalAlign=middle;resizable=0;points=[];autosize=1;strokeColor=none;fillColor=none;" parent="1" vertex="1">
          <mxGeometry x="395" y="61" width="30" height="40" as="geometry" />
        </mxCell>
        <mxCell id="Sp9nMRfrtx3zFeuTPP1S-3" value="" style="endArrow=classic;html=1;rounded=0;exitX=0.5;exitY=1;exitDx=0;exitDy=0;" parent="1" source="Sp9nMRfrtx3zFeuTPP1S-1" edge="1">
          <mxGeometry width="50" height="50" relative="1" as="geometry">
            <mxPoint x="400" y="150" as="sourcePoint" />
            <mxPoint x="410" y="160" as="targetPoint" />
          </mxGeometry>
        </mxCell>
        <mxCell id="Sp9nMRfrtx3zFeuTPP1S-5" value="&lt;font style=&quot;font-size: 11px;&quot;&gt;output&lt;/font&gt;&lt;div&gt;&lt;font style=&quot;font-size: 11px;&quot;&gt;&quot;Menu akses&quot;&lt;/font&gt;&lt;/div&gt;" style="shape=parallelogram;perimeter=parallelogramPerimeter;whiteSpace=wrap;html=1;fixedSize=1;" parent="1" vertex="1">
          <mxGeometry x="360" y="160" width="100" height="40" as="geometry" />
        </mxCell>
        <mxCell id="Sp9nMRfrtx3zFeuTPP1S-6" value="" style="endArrow=classic;html=1;rounded=0;exitX=0.75;exitY=1;exitDx=0;exitDy=0;" parent="1" source="Sp9nMRfrtx3zFeuTPP1S-5" edge="1">
          <mxGeometry width="50" height="50" relative="1" as="geometry">
            <mxPoint x="450" y="150" as="sourcePoint" />
            <mxPoint x="470" y="200" as="targetPoint" />
          </mxGeometry>
        </mxCell>
        <mxCell id="Sp9nMRfrtx3zFeuTPP1S-7" value="&lt;font style=&quot;font-size: 11px;&quot;&gt;input&lt;/font&gt;&lt;div&gt;&lt;font style=&quot;font-size: 11px;&quot;&gt;menu (1-5)&lt;/font&gt;&lt;/div&gt;" style="shape=parallelogram;perimeter=parallelogramPerimeter;whiteSpace=wrap;html=1;fixedSize=1;" parent="1" vertex="1">
          <mxGeometry x="360" y="230" width="100" height="40" as="geometry" />
        </mxCell>
        <mxCell id="Sp9nMRfrtx3zFeuTPP1S-8" value="" style="endArrow=classic;html=1;rounded=0;exitX=0.5;exitY=1;exitDx=0;exitDy=0;" parent="1" source="Sp9nMRfrtx3zFeuTPP1S-5" edge="1">
          <mxGeometry width="50" height="50" relative="1" as="geometry">
            <mxPoint x="490" y="200" as="sourcePoint" />
            <mxPoint x="410" y="230" as="targetPoint" />
          </mxGeometry>
        </mxCell>
        <mxCell id="Sp9nMRfrtx3zFeuTPP1S-9" value="" style="endArrow=classic;html=1;rounded=0;entryX=0.215;entryY=0.049;entryDx=0;entryDy=0;entryPerimeter=0;" parent="1" target="Sp9nMRfrtx3zFeuTPP1S-7" edge="1">
          <mxGeometry width="50" height="50" relative="1" as="geometry">
            <mxPoint x="350" y="232" as="sourcePoint" />
            <mxPoint x="540" y="150" as="targetPoint" />
          </mxGeometry>
        </mxCell>
        <mxCell id="Sp9nMRfrtx3zFeuTPP1S-10" value="" style="endArrow=classic;html=1;rounded=0;exitX=0.5;exitY=1;exitDx=0;exitDy=0;" parent="1" source="Sp9nMRfrtx3zFeuTPP1S-7" edge="1">
          <mxGeometry width="50" height="50" relative="1" as="geometry">
            <mxPoint x="540" y="270" as="sourcePoint" />
            <mxPoint x="410" y="300" as="targetPoint" />
          </mxGeometry>
        </mxCell>
        <mxCell id="Sp9nMRfrtx3zFeuTPP1S-11" value="&lt;font style=&quot;font-size: 11px;&quot;&gt;if menu==1&lt;/font&gt;" style="rhombus;whiteSpace=wrap;html=1;" parent="1" vertex="1">
          <mxGeometry x="370" y="300" width="80" height="80" as="geometry" />
        </mxCell>
        <mxCell id="Sp9nMRfrtx3zFeuTPP1S-12" value="" style="endArrow=classic;html=1;rounded=0;exitX=0.5;exitY=1;exitDx=0;exitDy=0;" parent="1" source="Sp9nMRfrtx3zFeuTPP1S-11" edge="1">
          <mxGeometry width="50" height="50" relative="1" as="geometry">
            <mxPoint x="550" y="330" as="sourcePoint" />
            <mxPoint x="410" y="420" as="targetPoint" />
          </mxGeometry>
        </mxCell>
        <mxCell id="aP-TslgMJIK6oKq-soSW-1" value="True" style="text;html=1;align=center;verticalAlign=middle;resizable=0;points=[];autosize=1;strokeColor=none;fillColor=none;" parent="1" vertex="1">
          <mxGeometry x="400" y="380" width="50" height="30" as="geometry" />
        </mxCell>
        <mxCell id="aP-TslgMJIK6oKq-soSW-2" value="&lt;font style=&quot;font-size: 11px;&quot;&gt;output&lt;/font&gt;&lt;div&gt;&lt;font style=&quot;font-size: 11px;&quot;&gt;List top drama korea&lt;/font&gt;&lt;/div&gt;" style="shape=parallelogram;perimeter=parallelogramPerimeter;whiteSpace=wrap;html=1;fixedSize=1;" parent="1" vertex="1">
          <mxGeometry x="340" y="420" width="140" height="50" as="geometry" />
        </mxCell>
        <mxCell id="aP-TslgMJIK6oKq-soSW-3" value="" style="endArrow=classic;html=1;rounded=0;" parent="1" edge="1">
          <mxGeometry width="50" height="50" relative="1" as="geometry">
            <mxPoint x="460" y="470" as="sourcePoint" />
            <mxPoint x="490" y="470" as="targetPoint" />
          </mxGeometry>
        </mxCell>
        <mxCell id="aP-TslgMJIK6oKq-soSW-4" value="" style="endArrow=classic;html=1;rounded=0;exitX=1;exitY=0.5;exitDx=0;exitDy=0;entryX=0;entryY=0.5;entryDx=0;entryDy=0;" parent="1" source="Sp9nMRfrtx3zFeuTPP1S-11" target="aP-TslgMJIK6oKq-soSW-6" edge="1">
          <mxGeometry width="50" height="50" relative="1" as="geometry">
            <mxPoint x="690" y="260" as="sourcePoint" />
            <mxPoint x="500" y="340" as="targetPoint" />
          </mxGeometry>
        </mxCell>
        <mxCell id="aP-TslgMJIK6oKq-soSW-5" value="False" style="text;html=1;align=center;verticalAlign=middle;resizable=0;points=[];autosize=1;strokeColor=none;fillColor=none;" parent="1" vertex="1">
          <mxGeometry x="482" y="308" width="50" height="30" as="geometry" />
        </mxCell>
        <mxCell id="aP-TslgMJIK6oKq-soSW-6" value="&lt;font style=&quot;font-size: 11px;&quot;&gt;elif menu==2&lt;/font&gt;" style="rhombus;whiteSpace=wrap;html=1;" parent="1" vertex="1">
          <mxGeometry x="558" y="300" width="80" height="80" as="geometry" />
        </mxCell>
        <mxCell id="aP-TslgMJIK6oKq-soSW-7" value="" style="endArrow=classic;html=1;rounded=0;exitX=0.5;exitY=1;exitDx=0;exitDy=0;" parent="1" source="aP-TslgMJIK6oKq-soSW-6" edge="1">
          <mxGeometry width="50" height="50" relative="1" as="geometry">
            <mxPoint x="838" y="320" as="sourcePoint" />
            <mxPoint x="598" y="420" as="targetPoint" />
          </mxGeometry>
        </mxCell>
        <mxCell id="aP-TslgMJIK6oKq-soSW-8" value="True" style="text;html=1;align=center;verticalAlign=middle;resizable=0;points=[];autosize=1;strokeColor=none;fillColor=none;" parent="1" vertex="1">
          <mxGeometry x="588" y="380" width="50" height="30" as="geometry" />
        </mxCell>
        <mxCell id="aP-TslgMJIK6oKq-soSW-15" value="&lt;font style=&quot;font-size: 11px;&quot;&gt;output&lt;/font&gt;&lt;div&gt;&lt;font style=&quot;font-size: 11px;&quot;&gt;List top drama korea&lt;/font&gt;&lt;/div&gt;" style="shape=parallelogram;perimeter=parallelogramPerimeter;whiteSpace=wrap;html=1;fixedSize=1;" parent="1" vertex="1">
          <mxGeometry x="529" y="421" width="130" height="60" as="geometry" />
        </mxCell>
        <mxCell id="aP-TslgMJIK6oKq-soSW-16" value="" style="endArrow=classic;html=1;rounded=0;exitX=0.852;exitY=0.997;exitDx=0;exitDy=0;exitPerimeter=0;" parent="1" source="aP-TslgMJIK6oKq-soSW-15" edge="1">
          <mxGeometry width="50" height="50" relative="1" as="geometry">
            <mxPoint x="719" y="366" as="sourcePoint" />
            <mxPoint x="679" y="481" as="targetPoint" />
          </mxGeometry>
        </mxCell>
        <mxCell id="aP-TslgMJIK6oKq-soSW-17" value="" style="endArrow=classic;html=1;rounded=0;exitX=0.5;exitY=1;exitDx=0;exitDy=0;" parent="1" source="aP-TslgMJIK6oKq-soSW-15" edge="1">
          <mxGeometry width="50" height="50" relative="1" as="geometry">
            <mxPoint x="719" y="366" as="sourcePoint" />
            <mxPoint x="594" y="516" as="targetPoint" />
          </mxGeometry>
        </mxCell>
        <mxCell id="aP-TslgMJIK6oKq-soSW-18" value="&lt;font style=&quot;font-size: 11px;&quot;&gt;input&lt;/font&gt;&lt;div&gt;&lt;font style=&quot;font-size: 11px;&quot;&gt;nomor genre (1-5)&lt;/font&gt;&lt;/div&gt;" style="shape=parallelogram;perimeter=parallelogramPerimeter;whiteSpace=wrap;html=1;fixedSize=1;" parent="1" vertex="1">
          <mxGeometry x="529" y="516" width="130" height="50" as="geometry" />
        </mxCell>
        <mxCell id="aP-TslgMJIK6oKq-soSW-19" value="" style="endArrow=classic;html=1;rounded=0;" parent="1" edge="1">
          <mxGeometry width="50" height="50" relative="1" as="geometry">
            <mxPoint x="519" y="516" as="sourcePoint" />
            <mxPoint x="549" y="516" as="targetPoint" />
          </mxGeometry>
        </mxCell>
        <mxCell id="aP-TslgMJIK6oKq-soSW-21" value="" style="endArrow=classic;html=1;rounded=0;exitX=0.5;exitY=1;exitDx=0;exitDy=0;" parent="1" source="aP-TslgMJIK6oKq-soSW-18" edge="1">
          <mxGeometry width="50" height="50" relative="1" as="geometry">
            <mxPoint x="799" y="636" as="sourcePoint" />
            <mxPoint x="594" y="596" as="targetPoint" />
          </mxGeometry>
        </mxCell>
        <mxCell id="aP-TslgMJIK6oKq-soSW-23" value="&lt;font style=&quot;font-size: 11px;&quot;&gt;if nomor==1-5&lt;/font&gt;" style="rhombus;whiteSpace=wrap;html=1;" parent="1" vertex="1">
          <mxGeometry x="554" y="595" width="80" height="70" as="geometry" />
        </mxCell>
        <mxCell id="aP-TslgMJIK6oKq-soSW-24" value="" style="endArrow=classic;html=1;rounded=0;exitX=0.5;exitY=1;exitDx=0;exitDy=0;" parent="1" source="aP-TslgMJIK6oKq-soSW-23" edge="1">
          <mxGeometry width="50" height="50" relative="1" as="geometry">
            <mxPoint x="659" y="686" as="sourcePoint" />
            <mxPoint x="594" y="696" as="targetPoint" />
          </mxGeometry>
        </mxCell>
        <mxCell id="aP-TslgMJIK6oKq-soSW-27" value="" style="endArrow=classic;html=1;rounded=0;exitX=0.5;exitY=1;exitDx=0;exitDy=0;" parent="1" edge="1">
          <mxGeometry width="50" height="50" relative="1" as="geometry">
            <mxPoint x="594" y="746" as="sourcePoint" />
            <mxPoint x="594" y="776" as="targetPoint" />
          </mxGeometry>
        </mxCell>
        <mxCell id="aP-TslgMJIK6oKq-soSW-28" value="&lt;font style=&quot;font-size: 11px;&quot;&gt;output&lt;/font&gt;&lt;div&gt;&lt;span style=&quot;font-size: 11px;&quot;&gt;&quot;Data berhasil ditambahkan!&quot;&lt;/span&gt;&lt;/div&gt;" style="shape=parallelogram;perimeter=parallelogramPerimeter;whiteSpace=wrap;html=1;fixedSize=1;" parent="1" vertex="1">
          <mxGeometry x="505" y="776" width="167" height="40" as="geometry" />
        </mxCell>
        <mxCell id="aP-TslgMJIK6oKq-soSW-29" value="" style="endArrow=classic;html=1;rounded=0;exitX=0.75;exitY=1;exitDx=0;exitDy=0;" parent="1" source="aP-TslgMJIK6oKq-soSW-28" edge="1">
          <mxGeometry width="50" height="50" relative="1" as="geometry">
            <mxPoint x="645.2" y="825.5500000000002" as="sourcePoint" />
            <mxPoint x="679" y="816" as="targetPoint" />
          </mxGeometry>
        </mxCell>
        <mxCell id="aP-TslgMJIK6oKq-soSW-30" value="" style="endArrow=classic;html=1;rounded=0;exitX=1;exitY=0.5;exitDx=0;exitDy=0;" parent="1" source="aP-TslgMJIK6oKq-soSW-23" edge="1">
          <mxGeometry width="50" height="50" relative="1" as="geometry">
            <mxPoint x="769" y="656" as="sourcePoint" />
            <mxPoint x="669" y="630" as="targetPoint" />
          </mxGeometry>
        </mxCell>
        <mxCell id="aP-TslgMJIK6oKq-soSW-31" value="True" style="text;html=1;align=center;verticalAlign=middle;resizable=0;points=[];autosize=1;strokeColor=none;fillColor=none;" parent="1" vertex="1">
          <mxGeometry x="584" y="664" width="50" height="30" as="geometry" />
        </mxCell>
        <mxCell id="aP-TslgMJIK6oKq-soSW-32" value="&lt;font style=&quot;font-size: 11px;&quot;&gt;output&lt;/font&gt;&lt;div&gt;&lt;font style=&quot;font-size: 11px;&quot;&gt;&quot;Nomor genre tidak valid!&quot;&lt;/font&gt;&lt;/div&gt;" style="shape=parallelogram;perimeter=parallelogramPerimeter;whiteSpace=wrap;html=1;fixedSize=1;" parent="1" vertex="1">
          <mxGeometry x="659" y="599.5" width="120" height="61" as="geometry" />
        </mxCell>
        <mxCell id="aP-TslgMJIK6oKq-soSW-34" value="" style="endArrow=classic;html=1;rounded=0;exitX=0.838;exitY=0.998;exitDx=0;exitDy=0;exitPerimeter=0;" parent="1" source="aP-TslgMJIK6oKq-soSW-32" edge="1">
          <mxGeometry width="50" height="50" relative="1" as="geometry">
            <mxPoint x="769" y="656" as="sourcePoint" />
            <mxPoint x="789" y="660" as="targetPoint" />
          </mxGeometry>
        </mxCell>
        <mxCell id="aP-TslgMJIK6oKq-soSW-38" value="" style="endArrow=classic;html=1;rounded=0;exitX=1;exitY=0.5;exitDx=0;exitDy=0;entryX=0;entryY=0.5;entryDx=0;entryDy=0;" parent="1" source="aP-TslgMJIK6oKq-soSW-6" target="aP-TslgMJIK6oKq-soSW-39" edge="1">
          <mxGeometry width="50" height="50" relative="1" as="geometry">
            <mxPoint x="850" y="490" as="sourcePoint" />
            <mxPoint x="1020" y="340" as="targetPoint" />
          </mxGeometry>
        </mxCell>
        <mxCell id="aP-TslgMJIK6oKq-soSW-39" value="&lt;font style=&quot;font-size: 11px;&quot;&gt;elif menu==3&lt;/font&gt;" style="rhombus;whiteSpace=wrap;html=1;" parent="1" vertex="1">
          <mxGeometry x="871" y="300" width="80" height="80" as="geometry" />
        </mxCell>
        <mxCell id="aP-TslgMJIK6oKq-soSW-42" value="" style="endArrow=classic;html=1;rounded=0;" parent="1" edge="1">
          <mxGeometry width="50" height="50" relative="1" as="geometry">
            <mxPoint x="911.47" y="380" as="sourcePoint" />
            <mxPoint x="911" y="420" as="targetPoint" />
          </mxGeometry>
        </mxCell>
        <mxCell id="aP-TslgMJIK6oKq-soSW-43" value="True" style="text;html=1;align=center;verticalAlign=middle;resizable=0;points=[];autosize=1;strokeColor=none;fillColor=none;" parent="1" vertex="1">
          <mxGeometry x="903" y="380" width="50" height="30" as="geometry" />
        </mxCell>
        <mxCell id="aP-TslgMJIK6oKq-soSW-44" value="&lt;font style=&quot;font-size: 11px;&quot;&gt;output&lt;/font&gt;&lt;div&gt;&lt;font style=&quot;font-size: 11px;&quot;&gt;daftar genre dan isinya&lt;/font&gt;&lt;/div&gt;" style="shape=parallelogram;perimeter=parallelogramPerimeter;whiteSpace=wrap;html=1;fixedSize=1;" parent="1" vertex="1">
          <mxGeometry x="856" y="420" width="110" height="50" as="geometry" />
        </mxCell>
        <mxCell id="aP-TslgMJIK6oKq-soSW-45" value="" style="endArrow=classic;html=1;rounded=0;exitX=0.773;exitY=1;exitDx=0;exitDy=0;exitPerimeter=0;" parent="1" source="aP-TslgMJIK6oKq-soSW-44" edge="1">
          <mxGeometry width="50" height="50" relative="1" as="geometry">
            <mxPoint x="771" y="540" as="sourcePoint" />
            <mxPoint x="981" y="470" as="targetPoint" />
          </mxGeometry>
        </mxCell>
        <mxCell id="aP-TslgMJIK6oKq-soSW-46" value="" style="endArrow=classic;html=1;rounded=0;exitX=0.5;exitY=1;exitDx=0;exitDy=0;" parent="1" source="aP-TslgMJIK6oKq-soSW-44" edge="1">
          <mxGeometry width="50" height="50" relative="1" as="geometry">
            <mxPoint x="771" y="540" as="sourcePoint" />
            <mxPoint x="911" y="500" as="targetPoint" />
          </mxGeometry>
        </mxCell>
        <mxCell id="aP-TslgMJIK6oKq-soSW-48" value="&lt;font style=&quot;font-size: 11px;&quot;&gt;input&lt;/font&gt;&lt;div&gt;&lt;font style=&quot;font-size: 11px;&quot;&gt;nomor genre yang ingin diubah&lt;/font&gt;&lt;/div&gt;" style="shape=parallelogram;perimeter=parallelogramPerimeter;whiteSpace=wrap;html=1;fixedSize=1;" parent="1" vertex="1">
          <mxGeometry x="841" y="500" width="140" height="50" as="geometry" />
        </mxCell>
        <mxCell id="aP-TslgMJIK6oKq-soSW-49" value="" style="endArrow=classic;html=1;rounded=0;entryX=0.143;entryY=0;entryDx=0;entryDy=0;entryPerimeter=0;" parent="1" edge="1">
          <mxGeometry width="50" height="50" relative="1" as="geometry">
            <mxPoint x="831" y="501" as="sourcePoint" />
            <mxPoint x="861.02" y="501" as="targetPoint" />
          </mxGeometry>
        </mxCell>
        <mxCell id="aP-TslgMJIK6oKq-soSW-50" value="" style="endArrow=classic;html=1;rounded=0;exitX=0.5;exitY=1;exitDx=0;exitDy=0;" parent="1" source="aP-TslgMJIK6oKq-soSW-48" edge="1">
          <mxGeometry width="50" height="50" relative="1" as="geometry">
            <mxPoint x="861" y="630" as="sourcePoint" />
            <mxPoint x="911" y="580" as="targetPoint" />
          </mxGeometry>
        </mxCell>
        <mxCell id="aP-TslgMJIK6oKq-soSW-51" value="&lt;font style=&quot;font-size: 11px;&quot;&gt;if nomor==1-5&lt;/font&gt;" style="rhombus;whiteSpace=wrap;html=1;" parent="1" vertex="1">
          <mxGeometry x="866" y="580" width="90" height="60" as="geometry" />
        </mxCell>
        <mxCell id="aP-TslgMJIK6oKq-soSW-52" value="" style="endArrow=classic;html=1;rounded=0;exitX=0.5;exitY=1;exitDx=0;exitDy=0;" parent="1" source="aP-TslgMJIK6oKq-soSW-51" edge="1">
          <mxGeometry width="50" height="50" relative="1" as="geometry">
            <mxPoint x="861" y="630" as="sourcePoint" />
            <mxPoint x="911" y="670" as="targetPoint" />
          </mxGeometry>
        </mxCell>
        <mxCell id="aP-TslgMJIK6oKq-soSW-53" value="True" style="text;html=1;align=center;verticalAlign=middle;resizable=0;points=[];autosize=1;strokeColor=none;fillColor=none;" parent="1" vertex="1">
          <mxGeometry x="901" y="634.5" width="50" height="30" as="geometry" />
        </mxCell>
        <mxCell id="aP-TslgMJIK6oKq-soSW-54" value="&lt;font style=&quot;font-size: 11px;&quot;&gt;input&lt;/font&gt;&lt;div&gt;&lt;font style=&quot;font-size: 11px;&quot;&gt;index dan judul&amp;nbsp;&lt;/font&gt;&lt;/div&gt;&lt;div&gt;&lt;font style=&quot;font-size: 11px;&quot;&gt;yang ingin diubah&lt;/font&gt;&lt;/div&gt;" style="shape=parallelogram;perimeter=parallelogramPerimeter;whiteSpace=wrap;html=1;fixedSize=1;" parent="1" vertex="1">
          <mxGeometry x="837" y="670" width="148" height="50" as="geometry" />
        </mxCell>
        <mxCell id="aP-TslgMJIK6oKq-soSW-55" value="" style="endArrow=classic;html=1;rounded=0;entryX=0.198;entryY=0.069;entryDx=0;entryDy=0;entryPerimeter=0;" parent="1" edge="1">
          <mxGeometry width="50" height="50" relative="1" as="geometry">
            <mxPoint x="825" y="670" as="sourcePoint" />
            <mxPoint x="858.76" y="670.45" as="targetPoint" />
          </mxGeometry>
        </mxCell>
        <mxCell id="aP-TslgMJIK6oKq-soSW-57" value="" style="endArrow=classic;html=1;rounded=0;exitX=0.5;exitY=1;exitDx=0;exitDy=0;" parent="1" source="aP-TslgMJIK6oKq-soSW-54" edge="1">
          <mxGeometry width="50" height="50" relative="1" as="geometry">
            <mxPoint x="891" y="730" as="sourcePoint" />
            <mxPoint x="911" y="750" as="targetPoint" />
          </mxGeometry>
        </mxCell>
        <mxCell id="aP-TslgMJIK6oKq-soSW-58" value="&lt;font style=&quot;font-size: 11px;&quot;&gt;output&lt;/font&gt;&lt;div&gt;&lt;font style=&quot;font-size: 11px;&quot;&gt;&quot;Data berhasil diubah!&quot;&lt;/font&gt;&lt;/div&gt;" style="shape=parallelogram;perimeter=parallelogramPerimeter;whiteSpace=wrap;html=1;fixedSize=1;" parent="1" vertex="1">
          <mxGeometry x="831" y="750" width="140" height="50" as="geometry" />
        </mxCell>
        <mxCell id="aP-TslgMJIK6oKq-soSW-59" value="" style="endArrow=classic;html=1;rounded=0;exitX=0.864;exitY=0.993;exitDx=0;exitDy=0;exitPerimeter=0;" parent="1" source="aP-TslgMJIK6oKq-soSW-58" edge="1">
          <mxGeometry width="50" height="50" relative="1" as="geometry">
            <mxPoint x="891" y="730" as="sourcePoint" />
            <mxPoint x="981" y="800" as="targetPoint" />
          </mxGeometry>
        </mxCell>
        <mxCell id="aP-TslgMJIK6oKq-soSW-60" value="" style="endArrow=classic;html=1;rounded=0;exitX=1;exitY=0.5;exitDx=0;exitDy=0;" parent="1" source="aP-TslgMJIK6oKq-soSW-51" edge="1">
          <mxGeometry width="50" height="50" relative="1" as="geometry">
            <mxPoint x="1021" y="680" as="sourcePoint" />
            <mxPoint x="991" y="610" as="targetPoint" />
          </mxGeometry>
        </mxCell>
        <mxCell id="aP-TslgMJIK6oKq-soSW-61" value="False" style="text;html=1;align=center;verticalAlign=middle;resizable=0;points=[];autosize=1;strokeColor=none;fillColor=none;" parent="1" vertex="1">
          <mxGeometry x="622" y="602.5" width="50" height="30" as="geometry" />
        </mxCell>
        <mxCell id="aP-TslgMJIK6oKq-soSW-62" value="False" style="text;html=1;align=center;verticalAlign=middle;resizable=0;points=[];autosize=1;strokeColor=none;fillColor=none;" parent="1" vertex="1">
          <mxGeometry x="939" y="581" width="50" height="30" as="geometry" />
        </mxCell>
        <mxCell id="aP-TslgMJIK6oKq-soSW-63" value="&lt;font style=&quot;font-size: 11px;&quot;&gt;output&lt;/font&gt;&lt;div&gt;&lt;font style=&quot;font-size: 11px;&quot;&gt;&quot;Nomor genre tidak valid!&quot;&lt;/font&gt;&lt;/div&gt;" style="shape=parallelogram;perimeter=parallelogramPerimeter;whiteSpace=wrap;html=1;fixedSize=1;" parent="1" vertex="1">
          <mxGeometry x="981" y="579.5" width="120" height="61" as="geometry" />
        </mxCell>
        <mxCell id="aP-TslgMJIK6oKq-soSW-64" value="" style="endArrow=classic;html=1;rounded=0;exitX=0.838;exitY=0.998;exitDx=0;exitDy=0;exitPerimeter=0;" parent="1" edge="1">
          <mxGeometry width="50" height="50" relative="1" as="geometry">
            <mxPoint x="1071.56" y="640.3779999999999" as="sourcePoint" />
            <mxPoint x="1101" y="640" as="targetPoint" />
          </mxGeometry>
        </mxCell>
        <mxCell id="aP-TslgMJIK6oKq-soSW-66" value="False" style="text;html=1;align=center;verticalAlign=middle;resizable=0;points=[];autosize=1;strokeColor=none;fillColor=none;" parent="1" vertex="1">
          <mxGeometry x="735" y="311" width="50" height="30" as="geometry" />
        </mxCell>
        <mxCell id="aP-TslgMJIK6oKq-soSW-67" value="" style="endArrow=classic;html=1;rounded=0;exitX=1;exitY=0.5;exitDx=0;exitDy=0;entryX=0;entryY=0.5;entryDx=0;entryDy=0;" parent="1" source="aP-TslgMJIK6oKq-soSW-39" target="aP-TslgMJIK6oKq-soSW-75" edge="1">
          <mxGeometry width="50" height="50" relative="1" as="geometry">
            <mxPoint x="1010" y="340.22999999999996" as="sourcePoint" />
            <mxPoint x="1198" y="340.77" as="targetPoint" />
          </mxGeometry>
        </mxCell>
        <mxCell id="aP-TslgMJIK6oKq-soSW-73" value="&lt;font style=&quot;font-size: 11px;&quot;&gt;input&lt;/font&gt;&lt;div&gt;&lt;font style=&quot;font-size: 11px;&quot;&gt;judul yang ingin ditambah&lt;/font&gt;&lt;/div&gt;" style="shape=parallelogram;perimeter=parallelogramPerimeter;whiteSpace=wrap;html=1;fixedSize=1;" parent="1" vertex="1">
          <mxGeometry x="532" y="696" width="120" height="50" as="geometry" />
        </mxCell>
        <mxCell id="aP-TslgMJIK6oKq-soSW-74" value="" style="endArrow=classic;html=1;rounded=0;entryX=0.198;entryY=0.069;entryDx=0;entryDy=0;entryPerimeter=0;" parent="1" edge="1">
          <mxGeometry width="50" height="50" relative="1" as="geometry">
            <mxPoint x="519" y="696" as="sourcePoint" />
            <mxPoint x="552.76" y="696.45" as="targetPoint" />
          </mxGeometry>
        </mxCell>
        <mxCell id="aP-TslgMJIK6oKq-soSW-75" value="&lt;font style=&quot;font-size: 11px;&quot;&gt;elif menu==4&lt;/font&gt;" style="rhombus;whiteSpace=wrap;html=1;" parent="1" vertex="1">
          <mxGeometry x="1188" y="300" width="80" height="80" as="geometry" />
        </mxCell>
        <mxCell id="aP-TslgMJIK6oKq-soSW-76" value="&lt;font style=&quot;font-size: 11px;&quot;&gt;output&lt;/font&gt;&lt;div&gt;&lt;font style=&quot;font-size: 11px;&quot;&gt;daftar genre dan isinya&lt;/font&gt;&lt;/div&gt;" style="shape=parallelogram;perimeter=parallelogramPerimeter;whiteSpace=wrap;html=1;fixedSize=1;" parent="1" vertex="1">
          <mxGeometry x="1174" y="420" width="110" height="50" as="geometry" />
        </mxCell>
        <mxCell id="aP-TslgMJIK6oKq-soSW-78" value="" style="endArrow=classic;html=1;rounded=0;exitX=0.5;exitY=1;exitDx=0;exitDy=0;" parent="1" source="aP-TslgMJIK6oKq-soSW-76" edge="1">
          <mxGeometry width="50" height="50" relative="1" as="geometry">
            <mxPoint x="1089" y="540" as="sourcePoint" />
            <mxPoint x="1229" y="500" as="targetPoint" />
          </mxGeometry>
        </mxCell>
        <mxCell id="aP-TslgMJIK6oKq-soSW-79" value="&lt;font style=&quot;font-size: 11px;&quot;&gt;input&lt;/font&gt;&lt;div&gt;&lt;font style=&quot;font-size: 11px;&quot;&gt;nomor genre yang ingin dihapus&lt;/font&gt;&lt;/div&gt;" style="shape=parallelogram;perimeter=parallelogramPerimeter;whiteSpace=wrap;html=1;fixedSize=1;" parent="1" vertex="1">
          <mxGeometry x="1159" y="500" width="140" height="50" as="geometry" />
        </mxCell>
        <mxCell id="aP-TslgMJIK6oKq-soSW-80" value="" style="endArrow=classic;html=1;rounded=0;entryX=0.143;entryY=0;entryDx=0;entryDy=0;entryPerimeter=0;" parent="1" edge="1">
          <mxGeometry width="50" height="50" relative="1" as="geometry">
            <mxPoint x="1149" y="501" as="sourcePoint" />
            <mxPoint x="1179.02" y="501" as="targetPoint" />
          </mxGeometry>
        </mxCell>
        <mxCell id="aP-TslgMJIK6oKq-soSW-81" value="" style="endArrow=classic;html=1;rounded=0;exitX=0.5;exitY=1;exitDx=0;exitDy=0;" parent="1" source="aP-TslgMJIK6oKq-soSW-79" edge="1">
          <mxGeometry width="50" height="50" relative="1" as="geometry">
            <mxPoint x="1179" y="630" as="sourcePoint" />
            <mxPoint x="1229" y="580" as="targetPoint" />
          </mxGeometry>
        </mxCell>
        <mxCell id="aP-TslgMJIK6oKq-soSW-82" value="&lt;font style=&quot;font-size: 11px;&quot;&gt;if nomor==1-5&lt;/font&gt;" style="rhombus;whiteSpace=wrap;html=1;" parent="1" vertex="1">
          <mxGeometry x="1184" y="580" width="90" height="60" as="geometry" />
        </mxCell>
        <mxCell id="aP-TslgMJIK6oKq-soSW-83" value="" style="endArrow=classic;html=1;rounded=0;exitX=0.5;exitY=1;exitDx=0;exitDy=0;" parent="1" source="aP-TslgMJIK6oKq-soSW-82" edge="1">
          <mxGeometry width="50" height="50" relative="1" as="geometry">
            <mxPoint x="1179" y="630" as="sourcePoint" />
            <mxPoint x="1229" y="670" as="targetPoint" />
          </mxGeometry>
        </mxCell>
        <mxCell id="aP-TslgMJIK6oKq-soSW-84" value="True" style="text;html=1;align=center;verticalAlign=middle;resizable=0;points=[];autosize=1;strokeColor=none;fillColor=none;" parent="1" vertex="1">
          <mxGeometry x="1219" y="634.5" width="50" height="30" as="geometry" />
        </mxCell>
        <mxCell id="aP-TslgMJIK6oKq-soSW-85" value="&lt;font style=&quot;font-size: 11px;&quot;&gt;input&lt;/font&gt;&lt;div&gt;&lt;font style=&quot;font-size: 11px;&quot;&gt;index yang ingin dihapus&lt;/font&gt;&lt;/div&gt;" style="shape=parallelogram;perimeter=parallelogramPerimeter;whiteSpace=wrap;html=1;fixedSize=1;" parent="1" vertex="1">
          <mxGeometry x="1170" y="670" width="117" height="50" as="geometry" />
        </mxCell>
        <mxCell id="aP-TslgMJIK6oKq-soSW-86" value="" style="endArrow=classic;html=1;rounded=0;entryX=0.198;entryY=0.069;entryDx=0;entryDy=0;entryPerimeter=0;" parent="1" edge="1">
          <mxGeometry width="50" height="50" relative="1" as="geometry">
            <mxPoint x="1159" y="670" as="sourcePoint" />
            <mxPoint x="1192.76" y="670.45" as="targetPoint" />
          </mxGeometry>
        </mxCell>
        <mxCell id="aP-TslgMJIK6oKq-soSW-87" value="" style="endArrow=classic;html=1;rounded=0;exitX=0.5;exitY=1;exitDx=0;exitDy=0;" parent="1" source="aP-TslgMJIK6oKq-soSW-85" edge="1">
          <mxGeometry width="50" height="50" relative="1" as="geometry">
            <mxPoint x="1209" y="730" as="sourcePoint" />
            <mxPoint x="1229" y="750" as="targetPoint" />
          </mxGeometry>
        </mxCell>
        <mxCell id="aP-TslgMJIK6oKq-soSW-88" value="&lt;font style=&quot;font-size: 11px;&quot;&gt;output&lt;/font&gt;&lt;div&gt;&lt;font style=&quot;font-size: 11px;&quot;&gt;&quot;Data berhasil dihapus!&quot;&lt;/font&gt;&lt;/div&gt;" style="shape=parallelogram;perimeter=parallelogramPerimeter;whiteSpace=wrap;html=1;fixedSize=1;" parent="1" vertex="1">
          <mxGeometry x="1154" y="750" width="140" height="50" as="geometry" />
        </mxCell>
        <mxCell id="aP-TslgMJIK6oKq-soSW-89" value="" style="endArrow=classic;html=1;rounded=0;exitX=0.864;exitY=0.993;exitDx=0;exitDy=0;exitPerimeter=0;" parent="1" source="aP-TslgMJIK6oKq-soSW-88" edge="1">
          <mxGeometry width="50" height="50" relative="1" as="geometry">
            <mxPoint x="1214" y="730" as="sourcePoint" />
            <mxPoint x="1304" y="800" as="targetPoint" />
          </mxGeometry>
        </mxCell>
        <mxCell id="aP-TslgMJIK6oKq-soSW-90" value="" style="endArrow=classic;html=1;rounded=0;exitX=1;exitY=0.5;exitDx=0;exitDy=0;" parent="1" source="aP-TslgMJIK6oKq-soSW-82" edge="1">
          <mxGeometry width="50" height="50" relative="1" as="geometry">
            <mxPoint x="1339" y="680" as="sourcePoint" />
            <mxPoint x="1309" y="610" as="targetPoint" />
          </mxGeometry>
        </mxCell>
        <mxCell id="aP-TslgMJIK6oKq-soSW-91" value="False" style="text;html=1;align=center;verticalAlign=middle;resizable=0;points=[];autosize=1;strokeColor=none;fillColor=none;" parent="1" vertex="1">
          <mxGeometry x="1257" y="581" width="50" height="30" as="geometry" />
        </mxCell>
        <mxCell id="aP-TslgMJIK6oKq-soSW-92" value="&lt;font style=&quot;font-size: 11px;&quot;&gt;output&lt;/font&gt;&lt;div&gt;&lt;font style=&quot;font-size: 11px;&quot;&gt;&quot;Nomor genre tidak valid!&quot;&lt;/font&gt;&lt;/div&gt;" style="shape=parallelogram;perimeter=parallelogramPerimeter;whiteSpace=wrap;html=1;fixedSize=1;" parent="1" vertex="1">
          <mxGeometry x="1299" y="579.5" width="120" height="61" as="geometry" />
        </mxCell>
        <mxCell id="aP-TslgMJIK6oKq-soSW-93" value="" style="endArrow=classic;html=1;rounded=0;exitX=0.838;exitY=0.998;exitDx=0;exitDy=0;exitPerimeter=0;" parent="1" source="aP-TslgMJIK6oKq-soSW-92" edge="1">
          <mxGeometry width="50" height="50" relative="1" as="geometry">
            <mxPoint x="1489" y="666.5" as="sourcePoint" />
            <mxPoint x="1429" y="640" as="targetPoint" />
          </mxGeometry>
        </mxCell>
        <mxCell id="aP-TslgMJIK6oKq-soSW-95" value="" style="endArrow=classic;html=1;rounded=0;exitX=0.5;exitY=1;exitDx=0;exitDy=0;" parent="1" source="aP-TslgMJIK6oKq-soSW-75" edge="1">
          <mxGeometry width="50" height="50" relative="1" as="geometry">
            <mxPoint x="1161" y="690" as="sourcePoint" />
            <mxPoint x="1228" y="420" as="targetPoint" />
          </mxGeometry>
        </mxCell>
        <mxCell id="aP-TslgMJIK6oKq-soSW-96" value="True" style="text;html=1;align=center;verticalAlign=middle;resizable=0;points=[];autosize=1;strokeColor=none;fillColor=none;" parent="1" vertex="1">
          <mxGeometry x="1221" y="380" width="50" height="30" as="geometry" />
        </mxCell>
        <mxCell id="aP-TslgMJIK6oKq-soSW-98" value="False" style="text;html=1;align=center;verticalAlign=middle;resizable=0;points=[];autosize=1;strokeColor=none;fillColor=none;" parent="1" vertex="1">
          <mxGeometry x="1032" y="309" width="50" height="30" as="geometry" />
        </mxCell>
        <mxCell id="aP-TslgMJIK6oKq-soSW-106" value="&lt;font style=&quot;font-size: 11px;&quot;&gt;output&lt;/font&gt;&lt;div&gt;&lt;font style=&quot;font-size: 11px;&quot;&gt;&quot;Error! Pilihan tidak valid!&quot;&lt;/font&gt;&lt;/div&gt;" style="shape=parallelogram;perimeter=parallelogramPerimeter;whiteSpace=wrap;html=1;fixedSize=1;" parent="1" vertex="1">
          <mxGeometry x="1463" y="314" width="120" height="60" as="geometry" />
        </mxCell>
        <mxCell id="aP-TslgMJIK6oKq-soSW-107" value="" style="endArrow=classic;html=1;rounded=0;exitX=0.75;exitY=1;exitDx=0;exitDy=0;" parent="1" source="aP-TslgMJIK6oKq-soSW-106" edge="1">
          <mxGeometry width="50" height="50" relative="1" as="geometry">
            <mxPoint x="1405" y="390" as="sourcePoint" />
            <mxPoint x="1595" y="374" as="targetPoint" />
          </mxGeometry>
        </mxCell>
        <mxCell id="aP-TslgMJIK6oKq-soSW-110" value="" style="endArrow=classic;html=1;rounded=0;entryX=1;entryY=0.5;entryDx=0;entryDy=0;" parent="1" target="Sp9nMRfrtx3zFeuTPP1S-5" edge="1">
          <mxGeometry width="50" height="50" relative="1" as="geometry">
            <mxPoint x="1226" y="800" as="sourcePoint" />
            <mxPoint x="1350" y="610" as="targetPoint" />
            <Array as="points">
              <mxPoint x="1226" y="870" />
              <mxPoint x="1620" y="870" />
              <mxPoint x="1620" y="180" />
            </Array>
          </mxGeometry>
        </mxCell>
        <mxCell id="aP-TslgMJIK6oKq-soSW-117" value="" style="endArrow=classic;html=1;rounded=0;exitX=0.543;exitY=1.006;exitDx=0;exitDy=0;exitPerimeter=0;" parent="1" source="aP-TslgMJIK6oKq-soSW-28" edge="1">
          <mxGeometry width="50" height="50" relative="1" as="geometry">
            <mxPoint x="596" y="830" as="sourcePoint" />
            <mxPoint x="1230" y="870" as="targetPoint" />
            <Array as="points">
              <mxPoint x="596" y="870" />
            </Array>
          </mxGeometry>
        </mxCell>
        <mxCell id="aP-TslgMJIK6oKq-soSW-119" value="" style="endArrow=classic;html=1;rounded=0;exitX=0.5;exitY=1;exitDx=0;exitDy=0;" parent="1" source="aP-TslgMJIK6oKq-soSW-2" edge="1">
          <mxGeometry width="50" height="50" relative="1" as="geometry">
            <mxPoint x="400" y="660" as="sourcePoint" />
            <mxPoint x="600" y="870" as="targetPoint" />
            <Array as="points">
              <mxPoint x="410" y="600" />
              <mxPoint x="410" y="740" />
              <mxPoint x="410" y="870" />
              <mxPoint x="520" y="870" />
            </Array>
          </mxGeometry>
        </mxCell>
        <mxCell id="aP-TslgMJIK6oKq-soSW-120" value="" style="endArrow=classic;html=1;rounded=0;exitX=0.5;exitY=1;exitDx=0;exitDy=0;" parent="1" source="aP-TslgMJIK6oKq-soSW-32" edge="1">
          <mxGeometry width="50" height="50" relative="1" as="geometry">
            <mxPoint x="929" y="676" as="sourcePoint" />
            <mxPoint x="720" y="870" as="targetPoint" />
          </mxGeometry>
        </mxCell>
        <mxCell id="aP-TslgMJIK6oKq-soSW-121" value="" style="endArrow=classic;html=1;rounded=0;exitX=0.5;exitY=1;exitDx=0;exitDy=0;" parent="1" source="aP-TslgMJIK6oKq-soSW-63" edge="1">
          <mxGeometry width="50" height="50" relative="1" as="geometry">
            <mxPoint x="1098" y="560" as="sourcePoint" />
            <mxPoint x="1041" y="870" as="targetPoint" />
          </mxGeometry>
        </mxCell>
        <mxCell id="aP-TslgMJIK6oKq-soSW-122" value="" style="endArrow=classic;html=1;rounded=0;exitX=0.564;exitY=1.016;exitDx=0;exitDy=0;exitPerimeter=0;" parent="1" source="aP-TslgMJIK6oKq-soSW-58" edge="1">
          <mxGeometry width="50" height="50" relative="1" as="geometry">
            <mxPoint x="1030" y="710" as="sourcePoint" />
            <mxPoint x="910" y="870" as="targetPoint" />
          </mxGeometry>
        </mxCell>
        <mxCell id="aP-TslgMJIK6oKq-soSW-123" value="" style="endArrow=classic;html=1;rounded=0;exitX=0.5;exitY=1;exitDx=0;exitDy=0;" parent="1" source="aP-TslgMJIK6oKq-soSW-92" edge="1">
          <mxGeometry width="50" height="50" relative="1" as="geometry">
            <mxPoint x="1277" y="570" as="sourcePoint" />
            <mxPoint x="1359" y="870" as="targetPoint" />
          </mxGeometry>
        </mxCell>
        <mxCell id="aP-TslgMJIK6oKq-soSW-130" value="" style="endArrow=classic;html=1;rounded=0;exitX=1;exitY=0.5;exitDx=0;exitDy=0;" parent="1" source="aP-TslgMJIK6oKq-soSW-75" edge="1">
          <mxGeometry width="50" height="50" relative="1" as="geometry">
            <mxPoint x="1037" y="690" as="sourcePoint" />
            <mxPoint x="1337" y="340" as="targetPoint" />
          </mxGeometry>
        </mxCell>
        <mxCell id="aP-TslgMJIK6oKq-soSW-131" value="False" style="text;html=1;align=center;verticalAlign=middle;resizable=0;points=[];autosize=1;strokeColor=none;fillColor=none;" parent="1" vertex="1">
          <mxGeometry x="1282" y="308" width="50" height="30" as="geometry" />
        </mxCell>
        <mxCell id="aP-TslgMJIK6oKq-soSW-146" value="" style="endArrow=classic;html=1;rounded=0;exitX=0.5;exitY=1;exitDx=0;exitDy=0;" parent="1" source="aP-TslgMJIK6oKq-soSW-106" edge="1">
          <mxGeometry width="50" height="50" relative="1" as="geometry">
            <mxPoint x="1388" y="610" as="sourcePoint" />
            <mxPoint x="1518" y="870" as="targetPoint" />
          </mxGeometry>
        </mxCell>
        <mxCell id="poKDJ4fJZm0-kdW_bwzS-1" value="False" style="text;html=1;align=center;verticalAlign=middle;resizable=0;points=[];autosize=1;strokeColor=none;fillColor=none;" parent="1" vertex="1">
          <mxGeometry x="1428" y="308" width="50" height="30" as="geometry" />
        </mxCell>
        <mxCell id="MycxK0KEMgv8TPvbV-IJ-1" value="&lt;font style=&quot;font-size: 11px;&quot;&gt;elif menu==5&lt;/font&gt;" style="rhombus;whiteSpace=wrap;html=1;" parent="1" vertex="1">
          <mxGeometry x="1337" y="300" width="80" height="80" as="geometry" />
        </mxCell>
        <mxCell id="MycxK0KEMgv8TPvbV-IJ-2" value="" style="endArrow=classic;html=1;rounded=0;exitX=1;exitY=0.5;exitDx=0;exitDy=0;entryX=0.096;entryY=0.429;entryDx=0;entryDy=0;entryPerimeter=0;" parent="1" source="MycxK0KEMgv8TPvbV-IJ-1" target="aP-TslgMJIK6oKq-soSW-106" edge="1">
          <mxGeometry width="50" height="50" relative="1" as="geometry">
            <mxPoint x="1150" y="550" as="sourcePoint" />
            <mxPoint x="1490" y="340" as="targetPoint" />
            <Array as="points">
              <mxPoint x="1470" y="340" />
            </Array>
          </mxGeometry>
        </mxCell>
        <mxCell id="MycxK0KEMgv8TPvbV-IJ-4" value="" style="endArrow=classic;html=1;rounded=0;exitX=0.5;exitY=1;exitDx=0;exitDy=0;" parent="1" source="MycxK0KEMgv8TPvbV-IJ-1" edge="1">
          <mxGeometry width="50" height="50" relative="1" as="geometry">
            <mxPoint x="1267" y="480" as="sourcePoint" />
            <mxPoint x="1377" y="430" as="targetPoint" />
          </mxGeometry>
        </mxCell>
        <mxCell id="MycxK0KEMgv8TPvbV-IJ-5" value="True" style="text;html=1;align=center;verticalAlign=middle;resizable=0;points=[];autosize=1;strokeColor=none;fillColor=none;" parent="1" vertex="1">
          <mxGeometry x="1372" y="388" width="50" height="30" as="geometry" />
        </mxCell>
        <mxCell id="URQopn0jQZY76QWJLr7U-1" value="" style="endArrow=classic;html=1;rounded=0;exitX=0.675;exitY=1.008;exitDx=0;exitDy=0;exitPerimeter=0;" parent="1" source="aP-TslgMJIK6oKq-soSW-76" edge="1">
          <mxGeometry width="50" height="50" relative="1" as="geometry">
            <mxPoint x="1167" y="540" as="sourcePoint" />
            <mxPoint x="1297" y="470" as="targetPoint" />
          </mxGeometry>
        </mxCell>
        <mxCell id="5QbeYeTlYrYbfPSqReD4-1" value="" style="verticalLabelPosition=bottom;verticalAlign=top;html=1;shape=offPageConnector;rounded=0;size=0.5;" parent="1" vertex="1">
          <mxGeometry x="1347" y="430" width="60" height="60" as="geometry" />
        </mxCell>
        <mxCell id="5QbeYeTlYrYbfPSqReD4-2" value="&lt;span style=&quot;font-size: 20px;&quot;&gt;4&lt;/span&gt;" style="text;html=1;align=center;verticalAlign=middle;resizable=0;points=[];autosize=1;strokeColor=none;fillColor=none;" parent="1" vertex="1">
          <mxGeometry x="1362" y="431" width="30" height="40" as="geometry" />
        </mxCell>
      </root>
    </mxGraphModel>
  </diagram>
  <diagram id="VqdcJ4g0nz28XRs92But" name="Menu_member">
    <mxGraphModel dx="1042" dy="660" grid="1" gridSize="10" guides="1" tooltips="1" connect="1" arrows="1" fold="1" page="1" pageScale="1" pageWidth="850" pageHeight="1100" math="0" shadow="0">
      <root>
        <mxCell id="0" />
        <mxCell id="1" parent="0" />
        <mxCell id="_KHCQE5RtrHX2ZRdeiGg-1" value="" style="verticalLabelPosition=bottom;verticalAlign=top;html=1;shape=offPageConnector;rounded=0;size=0.5;" parent="1" vertex="1">
          <mxGeometry x="220" y="130" width="60" height="60" as="geometry" />
        </mxCell>
        <mxCell id="_KHCQE5RtrHX2ZRdeiGg-2" value="&lt;span style=&quot;font-size: 20px;&quot;&gt;3&lt;/span&gt;" style="text;html=1;align=center;verticalAlign=middle;resizable=0;points=[];autosize=1;strokeColor=none;fillColor=none;" parent="1" vertex="1">
          <mxGeometry x="235" y="131" width="30" height="40" as="geometry" />
        </mxCell>
        <mxCell id="_KHCQE5RtrHX2ZRdeiGg-3" value="" style="endArrow=classic;html=1;rounded=0;exitX=0.5;exitY=1;exitDx=0;exitDy=0;" parent="1" source="_KHCQE5RtrHX2ZRdeiGg-1" edge="1">
          <mxGeometry width="50" height="50" relative="1" as="geometry">
            <mxPoint x="240" y="220" as="sourcePoint" />
            <mxPoint x="250" y="230" as="targetPoint" />
          </mxGeometry>
        </mxCell>
        <mxCell id="_KHCQE5RtrHX2ZRdeiGg-4" value="&lt;font style=&quot;font-size: 11px;&quot;&gt;output&lt;/font&gt;&lt;div&gt;&lt;font style=&quot;font-size: 11px;&quot;&gt;&quot;Menu akses&quot;&lt;/font&gt;&lt;/div&gt;" style="shape=parallelogram;perimeter=parallelogramPerimeter;whiteSpace=wrap;html=1;fixedSize=1;" parent="1" vertex="1">
          <mxGeometry x="200" y="230" width="100" height="40" as="geometry" />
        </mxCell>
        <mxCell id="_KHCQE5RtrHX2ZRdeiGg-5" value="" style="endArrow=classic;html=1;rounded=0;exitX=0.75;exitY=1;exitDx=0;exitDy=0;" parent="1" source="_KHCQE5RtrHX2ZRdeiGg-4" edge="1">
          <mxGeometry width="50" height="50" relative="1" as="geometry">
            <mxPoint x="290" y="220" as="sourcePoint" />
            <mxPoint x="310" y="270" as="targetPoint" />
          </mxGeometry>
        </mxCell>
        <mxCell id="_KHCQE5RtrHX2ZRdeiGg-6" value="&lt;font style=&quot;font-size: 11px;&quot;&gt;input&lt;/font&gt;&lt;div&gt;&lt;font style=&quot;font-size: 11px;&quot;&gt;menu (1-4)&lt;/font&gt;&lt;/div&gt;" style="shape=parallelogram;perimeter=parallelogramPerimeter;whiteSpace=wrap;html=1;fixedSize=1;" parent="1" vertex="1">
          <mxGeometry x="200" y="300" width="100" height="40" as="geometry" />
        </mxCell>
        <mxCell id="_KHCQE5RtrHX2ZRdeiGg-7" value="" style="endArrow=classic;html=1;rounded=0;exitX=0.5;exitY=1;exitDx=0;exitDy=0;" parent="1" source="_KHCQE5RtrHX2ZRdeiGg-4" edge="1">
          <mxGeometry width="50" height="50" relative="1" as="geometry">
            <mxPoint x="330" y="270" as="sourcePoint" />
            <mxPoint x="250" y="300" as="targetPoint" />
          </mxGeometry>
        </mxCell>
        <mxCell id="_KHCQE5RtrHX2ZRdeiGg-8" value="" style="endArrow=classic;html=1;rounded=0;entryX=0.215;entryY=0.049;entryDx=0;entryDy=0;entryPerimeter=0;" parent="1" target="_KHCQE5RtrHX2ZRdeiGg-6" edge="1">
          <mxGeometry width="50" height="50" relative="1" as="geometry">
            <mxPoint x="190" y="302" as="sourcePoint" />
            <mxPoint x="380" y="220" as="targetPoint" />
          </mxGeometry>
        </mxCell>
        <mxCell id="_KHCQE5RtrHX2ZRdeiGg-9" value="" style="endArrow=classic;html=1;rounded=0;exitX=0.5;exitY=1;exitDx=0;exitDy=0;" parent="1" source="_KHCQE5RtrHX2ZRdeiGg-6" edge="1">
          <mxGeometry width="50" height="50" relative="1" as="geometry">
            <mxPoint x="380" y="340" as="sourcePoint" />
            <mxPoint x="250" y="370" as="targetPoint" />
          </mxGeometry>
        </mxCell>
        <mxCell id="_KHCQE5RtrHX2ZRdeiGg-10" value="&lt;font style=&quot;font-size: 11px;&quot;&gt;if menu==1&lt;/font&gt;" style="rhombus;whiteSpace=wrap;html=1;" parent="1" vertex="1">
          <mxGeometry x="210" y="370" width="80" height="80" as="geometry" />
        </mxCell>
        <mxCell id="_KHCQE5RtrHX2ZRdeiGg-11" value="" style="endArrow=classic;html=1;rounded=0;exitX=0.5;exitY=1;exitDx=0;exitDy=0;" parent="1" source="_KHCQE5RtrHX2ZRdeiGg-10" edge="1">
          <mxGeometry width="50" height="50" relative="1" as="geometry">
            <mxPoint x="390" y="400" as="sourcePoint" />
            <mxPoint x="250" y="490" as="targetPoint" />
          </mxGeometry>
        </mxCell>
        <mxCell id="_KHCQE5RtrHX2ZRdeiGg-12" value="True" style="text;html=1;align=center;verticalAlign=middle;resizable=0;points=[];autosize=1;strokeColor=none;fillColor=none;" parent="1" vertex="1">
          <mxGeometry x="240" y="450" width="50" height="30" as="geometry" />
        </mxCell>
        <mxCell id="_KHCQE5RtrHX2ZRdeiGg-13" value="&lt;font style=&quot;font-size: 11px;&quot;&gt;output&lt;/font&gt;&lt;div&gt;&lt;font style=&quot;font-size: 11px;&quot;&gt;List top drama korea&lt;/font&gt;&lt;/div&gt;" style="shape=parallelogram;perimeter=parallelogramPerimeter;whiteSpace=wrap;html=1;fixedSize=1;" parent="1" vertex="1">
          <mxGeometry x="180" y="490" width="140" height="50" as="geometry" />
        </mxCell>
        <mxCell id="_KHCQE5RtrHX2ZRdeiGg-14" value="" style="endArrow=classic;html=1;rounded=0;" parent="1" edge="1">
          <mxGeometry width="50" height="50" relative="1" as="geometry">
            <mxPoint x="300" y="540" as="sourcePoint" />
            <mxPoint x="330" y="540" as="targetPoint" />
          </mxGeometry>
        </mxCell>
        <mxCell id="_KHCQE5RtrHX2ZRdeiGg-15" value="" style="endArrow=classic;html=1;rounded=0;exitX=1;exitY=0.5;exitDx=0;exitDy=0;entryX=0;entryY=0.5;entryDx=0;entryDy=0;" parent="1" source="_KHCQE5RtrHX2ZRdeiGg-10" target="_KHCQE5RtrHX2ZRdeiGg-36" edge="1">
          <mxGeometry width="50" height="50" relative="1" as="geometry">
            <mxPoint x="530" y="330" as="sourcePoint" />
            <mxPoint x="420" y="410" as="targetPoint" />
          </mxGeometry>
        </mxCell>
        <mxCell id="_KHCQE5RtrHX2ZRdeiGg-16" value="False" style="text;html=1;align=center;verticalAlign=middle;resizable=0;points=[];autosize=1;strokeColor=none;fillColor=none;" parent="1" vertex="1">
          <mxGeometry x="322" y="378" width="50" height="30" as="geometry" />
        </mxCell>
        <mxCell id="_KHCQE5RtrHX2ZRdeiGg-36" value="&lt;font style=&quot;font-size: 11px;&quot;&gt;elif menu==2&lt;/font&gt;" style="rhombus;whiteSpace=wrap;html=1;" parent="1" vertex="1">
          <mxGeometry x="424" y="370" width="80" height="80" as="geometry" />
        </mxCell>
        <mxCell id="_KHCQE5RtrHX2ZRdeiGg-37" value="" style="endArrow=classic;html=1;rounded=0;" parent="1" edge="1">
          <mxGeometry width="50" height="50" relative="1" as="geometry">
            <mxPoint x="464.47" y="450" as="sourcePoint" />
            <mxPoint x="464" y="490" as="targetPoint" />
          </mxGeometry>
        </mxCell>
        <mxCell id="_KHCQE5RtrHX2ZRdeiGg-38" value="True" style="text;html=1;align=center;verticalAlign=middle;resizable=0;points=[];autosize=1;strokeColor=none;fillColor=none;" parent="1" vertex="1">
          <mxGeometry x="456" y="450" width="50" height="30" as="geometry" />
        </mxCell>
        <mxCell id="_KHCQE5RtrHX2ZRdeiGg-39" value="&lt;font style=&quot;font-size: 11px;&quot;&gt;output&lt;/font&gt;&lt;div&gt;&lt;font style=&quot;font-size: 11px;&quot;&gt;daftar genre dan isinya&lt;/font&gt;&lt;/div&gt;" style="shape=parallelogram;perimeter=parallelogramPerimeter;whiteSpace=wrap;html=1;fixedSize=1;" parent="1" vertex="1">
          <mxGeometry x="409" y="490" width="110" height="50" as="geometry" />
        </mxCell>
        <mxCell id="_KHCQE5RtrHX2ZRdeiGg-40" value="" style="endArrow=classic;html=1;rounded=0;exitX=0.773;exitY=1;exitDx=0;exitDy=0;exitPerimeter=0;" parent="1" source="_KHCQE5RtrHX2ZRdeiGg-39" edge="1">
          <mxGeometry width="50" height="50" relative="1" as="geometry">
            <mxPoint x="324" y="610" as="sourcePoint" />
            <mxPoint x="534" y="540" as="targetPoint" />
          </mxGeometry>
        </mxCell>
        <mxCell id="_KHCQE5RtrHX2ZRdeiGg-41" value="" style="endArrow=classic;html=1;rounded=0;exitX=0.5;exitY=1;exitDx=0;exitDy=0;" parent="1" source="_KHCQE5RtrHX2ZRdeiGg-39" edge="1">
          <mxGeometry width="50" height="50" relative="1" as="geometry">
            <mxPoint x="324" y="610" as="sourcePoint" />
            <mxPoint x="464" y="570" as="targetPoint" />
          </mxGeometry>
        </mxCell>
        <mxCell id="_KHCQE5RtrHX2ZRdeiGg-42" value="&lt;font style=&quot;font-size: 11px;&quot;&gt;input&lt;/font&gt;&lt;div&gt;&lt;font style=&quot;font-size: 11px;&quot;&gt;nomor genre yang ingin diubah&lt;/font&gt;&lt;/div&gt;" style="shape=parallelogram;perimeter=parallelogramPerimeter;whiteSpace=wrap;html=1;fixedSize=1;" parent="1" vertex="1">
          <mxGeometry x="394" y="570" width="140" height="50" as="geometry" />
        </mxCell>
        <mxCell id="_KHCQE5RtrHX2ZRdeiGg-43" value="" style="endArrow=classic;html=1;rounded=0;entryX=0.143;entryY=0;entryDx=0;entryDy=0;entryPerimeter=0;" parent="1" edge="1">
          <mxGeometry width="50" height="50" relative="1" as="geometry">
            <mxPoint x="384" y="571" as="sourcePoint" />
            <mxPoint x="414.02" y="571" as="targetPoint" />
          </mxGeometry>
        </mxCell>
        <mxCell id="_KHCQE5RtrHX2ZRdeiGg-44" value="" style="endArrow=classic;html=1;rounded=0;exitX=0.5;exitY=1;exitDx=0;exitDy=0;" parent="1" source="_KHCQE5RtrHX2ZRdeiGg-42" edge="1">
          <mxGeometry width="50" height="50" relative="1" as="geometry">
            <mxPoint x="414" y="700" as="sourcePoint" />
            <mxPoint x="464" y="650" as="targetPoint" />
          </mxGeometry>
        </mxCell>
        <mxCell id="_KHCQE5RtrHX2ZRdeiGg-45" value="&lt;font style=&quot;font-size: 11px;&quot;&gt;if nomor==1-5&lt;/font&gt;" style="rhombus;whiteSpace=wrap;html=1;" parent="1" vertex="1">
          <mxGeometry x="419" y="650" width="90" height="60" as="geometry" />
        </mxCell>
        <mxCell id="_KHCQE5RtrHX2ZRdeiGg-46" value="" style="endArrow=classic;html=1;rounded=0;exitX=0.5;exitY=1;exitDx=0;exitDy=0;" parent="1" source="_KHCQE5RtrHX2ZRdeiGg-45" edge="1">
          <mxGeometry width="50" height="50" relative="1" as="geometry">
            <mxPoint x="414" y="700" as="sourcePoint" />
            <mxPoint x="464" y="740" as="targetPoint" />
          </mxGeometry>
        </mxCell>
        <mxCell id="_KHCQE5RtrHX2ZRdeiGg-47" value="True" style="text;html=1;align=center;verticalAlign=middle;resizable=0;points=[];autosize=1;strokeColor=none;fillColor=none;" parent="1" vertex="1">
          <mxGeometry x="454" y="704.5" width="50" height="30" as="geometry" />
        </mxCell>
        <mxCell id="_KHCQE5RtrHX2ZRdeiGg-48" value="&lt;font style=&quot;font-size: 11px;&quot;&gt;input&lt;/font&gt;&lt;div&gt;&lt;font style=&quot;font-size: 11px;&quot;&gt;index dan judul&amp;nbsp;&lt;/font&gt;&lt;/div&gt;&lt;div&gt;&lt;font style=&quot;font-size: 11px;&quot;&gt;yang ingin diubah&lt;/font&gt;&lt;/div&gt;" style="shape=parallelogram;perimeter=parallelogramPerimeter;whiteSpace=wrap;html=1;fixedSize=1;" parent="1" vertex="1">
          <mxGeometry x="401.5" y="740" width="125" height="50" as="geometry" />
        </mxCell>
        <mxCell id="_KHCQE5RtrHX2ZRdeiGg-49" value="" style="endArrow=classic;html=1;rounded=0;entryX=0.198;entryY=0.069;entryDx=0;entryDy=0;entryPerimeter=0;" parent="1" edge="1">
          <mxGeometry width="50" height="50" relative="1" as="geometry">
            <mxPoint x="388.24" y="740" as="sourcePoint" />
            <mxPoint x="422" y="740.45" as="targetPoint" />
          </mxGeometry>
        </mxCell>
        <mxCell id="_KHCQE5RtrHX2ZRdeiGg-50" value="" style="endArrow=classic;html=1;rounded=0;exitX=0.5;exitY=1;exitDx=0;exitDy=0;" parent="1" source="_KHCQE5RtrHX2ZRdeiGg-48" edge="1">
          <mxGeometry width="50" height="50" relative="1" as="geometry">
            <mxPoint x="444" y="800" as="sourcePoint" />
            <mxPoint x="464" y="820" as="targetPoint" />
          </mxGeometry>
        </mxCell>
        <mxCell id="_KHCQE5RtrHX2ZRdeiGg-51" value="&lt;font style=&quot;font-size: 11px;&quot;&gt;output&lt;/font&gt;&lt;div&gt;&lt;font style=&quot;font-size: 11px;&quot;&gt;&quot;Data berhasil diubah!&quot;&lt;/font&gt;&lt;/div&gt;" style="shape=parallelogram;perimeter=parallelogramPerimeter;whiteSpace=wrap;html=1;fixedSize=1;" parent="1" vertex="1">
          <mxGeometry x="384" y="820" width="140" height="50" as="geometry" />
        </mxCell>
        <mxCell id="_KHCQE5RtrHX2ZRdeiGg-52" value="" style="endArrow=classic;html=1;rounded=0;exitX=0.864;exitY=0.993;exitDx=0;exitDy=0;exitPerimeter=0;" parent="1" source="_KHCQE5RtrHX2ZRdeiGg-51" edge="1">
          <mxGeometry width="50" height="50" relative="1" as="geometry">
            <mxPoint x="444" y="800" as="sourcePoint" />
            <mxPoint x="534" y="870" as="targetPoint" />
          </mxGeometry>
        </mxCell>
        <mxCell id="_KHCQE5RtrHX2ZRdeiGg-53" value="" style="endArrow=classic;html=1;rounded=0;exitX=1;exitY=0.5;exitDx=0;exitDy=0;" parent="1" source="_KHCQE5RtrHX2ZRdeiGg-45" edge="1">
          <mxGeometry width="50" height="50" relative="1" as="geometry">
            <mxPoint x="574" y="750" as="sourcePoint" />
            <mxPoint x="544" y="680" as="targetPoint" />
          </mxGeometry>
        </mxCell>
        <mxCell id="_KHCQE5RtrHX2ZRdeiGg-55" value="False" style="text;html=1;align=center;verticalAlign=middle;resizable=0;points=[];autosize=1;strokeColor=none;fillColor=none;" parent="1" vertex="1">
          <mxGeometry x="492" y="651" width="50" height="30" as="geometry" />
        </mxCell>
        <mxCell id="_KHCQE5RtrHX2ZRdeiGg-56" value="&lt;font style=&quot;font-size: 11px;&quot;&gt;output&lt;/font&gt;&lt;div&gt;&lt;font style=&quot;font-size: 11px;&quot;&gt;&quot;Nomor genre tidak valid!&quot;&lt;/font&gt;&lt;/div&gt;" style="shape=parallelogram;perimeter=parallelogramPerimeter;whiteSpace=wrap;html=1;fixedSize=1;" parent="1" vertex="1">
          <mxGeometry x="534" y="649.5" width="120" height="61" as="geometry" />
        </mxCell>
        <mxCell id="_KHCQE5RtrHX2ZRdeiGg-57" value="" style="endArrow=classic;html=1;rounded=0;exitX=0.838;exitY=0.998;exitDx=0;exitDy=0;exitPerimeter=0;" parent="1" edge="1">
          <mxGeometry width="50" height="50" relative="1" as="geometry">
            <mxPoint x="624.56" y="710.3779999999999" as="sourcePoint" />
            <mxPoint x="654" y="710" as="targetPoint" />
          </mxGeometry>
        </mxCell>
        <mxCell id="_KHCQE5RtrHX2ZRdeiGg-59" value="" style="endArrow=classic;html=1;rounded=0;exitX=1;exitY=0.5;exitDx=0;exitDy=0;entryX=0;entryY=0.5;entryDx=0;entryDy=0;" parent="1" source="_KHCQE5RtrHX2ZRdeiGg-36" target="_KHCQE5RtrHX2ZRdeiGg-62" edge="1">
          <mxGeometry width="50" height="50" relative="1" as="geometry">
            <mxPoint x="563" y="410.22999999999996" as="sourcePoint" />
            <mxPoint x="751" y="410.77" as="targetPoint" />
          </mxGeometry>
        </mxCell>
        <mxCell id="_KHCQE5RtrHX2ZRdeiGg-62" value="&lt;font style=&quot;font-size: 11px;&quot;&gt;elif menu==3&lt;/font&gt;" style="rhombus;whiteSpace=wrap;html=1;" parent="1" vertex="1">
          <mxGeometry x="741" y="370" width="80" height="80" as="geometry" />
        </mxCell>
        <mxCell id="_KHCQE5RtrHX2ZRdeiGg-63" value="&lt;font style=&quot;font-size: 11px;&quot;&gt;output&lt;/font&gt;&lt;div&gt;&lt;font style=&quot;font-size: 11px;&quot;&gt;daftar genre dan isinya&lt;/font&gt;&lt;/div&gt;" style="shape=parallelogram;perimeter=parallelogramPerimeter;whiteSpace=wrap;html=1;fixedSize=1;" parent="1" vertex="1">
          <mxGeometry x="727" y="490" width="110" height="50" as="geometry" />
        </mxCell>
        <mxCell id="_KHCQE5RtrHX2ZRdeiGg-64" value="" style="endArrow=classic;html=1;rounded=0;exitX=0.5;exitY=1;exitDx=0;exitDy=0;" parent="1" source="_KHCQE5RtrHX2ZRdeiGg-63" edge="1">
          <mxGeometry width="50" height="50" relative="1" as="geometry">
            <mxPoint x="642" y="610" as="sourcePoint" />
            <mxPoint x="782" y="570" as="targetPoint" />
          </mxGeometry>
        </mxCell>
        <mxCell id="_KHCQE5RtrHX2ZRdeiGg-65" value="&lt;font style=&quot;font-size: 11px;&quot;&gt;input&lt;/font&gt;&lt;div&gt;&lt;font style=&quot;font-size: 11px;&quot;&gt;nomor genre yang ingin dihapus&lt;/font&gt;&lt;/div&gt;" style="shape=parallelogram;perimeter=parallelogramPerimeter;whiteSpace=wrap;html=1;fixedSize=1;" parent="1" vertex="1">
          <mxGeometry x="712" y="570" width="140" height="50" as="geometry" />
        </mxCell>
        <mxCell id="_KHCQE5RtrHX2ZRdeiGg-66" value="" style="endArrow=classic;html=1;rounded=0;entryX=0.143;entryY=0;entryDx=0;entryDy=0;entryPerimeter=0;" parent="1" edge="1">
          <mxGeometry width="50" height="50" relative="1" as="geometry">
            <mxPoint x="702" y="571" as="sourcePoint" />
            <mxPoint x="732.02" y="571" as="targetPoint" />
          </mxGeometry>
        </mxCell>
        <mxCell id="_KHCQE5RtrHX2ZRdeiGg-67" value="" style="endArrow=classic;html=1;rounded=0;exitX=0.5;exitY=1;exitDx=0;exitDy=0;" parent="1" source="_KHCQE5RtrHX2ZRdeiGg-65" edge="1">
          <mxGeometry width="50" height="50" relative="1" as="geometry">
            <mxPoint x="732" y="700" as="sourcePoint" />
            <mxPoint x="782" y="650" as="targetPoint" />
          </mxGeometry>
        </mxCell>
        <mxCell id="_KHCQE5RtrHX2ZRdeiGg-68" value="&lt;font style=&quot;font-size: 11px;&quot;&gt;if nomor==1-5&lt;/font&gt;" style="rhombus;whiteSpace=wrap;html=1;" parent="1" vertex="1">
          <mxGeometry x="737" y="650" width="90" height="60" as="geometry" />
        </mxCell>
        <mxCell id="_KHCQE5RtrHX2ZRdeiGg-69" value="" style="endArrow=classic;html=1;rounded=0;exitX=0.5;exitY=1;exitDx=0;exitDy=0;" parent="1" source="_KHCQE5RtrHX2ZRdeiGg-68" edge="1">
          <mxGeometry width="50" height="50" relative="1" as="geometry">
            <mxPoint x="732" y="700" as="sourcePoint" />
            <mxPoint x="782" y="740" as="targetPoint" />
          </mxGeometry>
        </mxCell>
        <mxCell id="_KHCQE5RtrHX2ZRdeiGg-70" value="True" style="text;html=1;align=center;verticalAlign=middle;resizable=0;points=[];autosize=1;strokeColor=none;fillColor=none;" parent="1" vertex="1">
          <mxGeometry x="772" y="704.5" width="50" height="30" as="geometry" />
        </mxCell>
        <mxCell id="_KHCQE5RtrHX2ZRdeiGg-71" value="&lt;font style=&quot;font-size: 11px;&quot;&gt;input&lt;/font&gt;&lt;div&gt;&lt;font style=&quot;font-size: 11px;&quot;&gt;index yang ingin dihapus&lt;/font&gt;&lt;/div&gt;" style="shape=parallelogram;perimeter=parallelogramPerimeter;whiteSpace=wrap;html=1;fixedSize=1;" parent="1" vertex="1">
          <mxGeometry x="723" y="740" width="117" height="50" as="geometry" />
        </mxCell>
        <mxCell id="_KHCQE5RtrHX2ZRdeiGg-72" value="" style="endArrow=classic;html=1;rounded=0;entryX=0.198;entryY=0.069;entryDx=0;entryDy=0;entryPerimeter=0;" parent="1" edge="1">
          <mxGeometry width="50" height="50" relative="1" as="geometry">
            <mxPoint x="712" y="740" as="sourcePoint" />
            <mxPoint x="745.76" y="740.45" as="targetPoint" />
          </mxGeometry>
        </mxCell>
        <mxCell id="_KHCQE5RtrHX2ZRdeiGg-73" value="" style="endArrow=classic;html=1;rounded=0;exitX=0.5;exitY=1;exitDx=0;exitDy=0;" parent="1" source="_KHCQE5RtrHX2ZRdeiGg-71" edge="1">
          <mxGeometry width="50" height="50" relative="1" as="geometry">
            <mxPoint x="762" y="800" as="sourcePoint" />
            <mxPoint x="782" y="820" as="targetPoint" />
          </mxGeometry>
        </mxCell>
        <mxCell id="_KHCQE5RtrHX2ZRdeiGg-74" value="&lt;font style=&quot;font-size: 11px;&quot;&gt;output&lt;/font&gt;&lt;div&gt;&lt;font style=&quot;font-size: 11px;&quot;&gt;&quot;Data berhasil dihapus!&quot;&lt;/font&gt;&lt;/div&gt;" style="shape=parallelogram;perimeter=parallelogramPerimeter;whiteSpace=wrap;html=1;fixedSize=1;" parent="1" vertex="1">
          <mxGeometry x="707" y="820" width="140" height="50" as="geometry" />
        </mxCell>
        <mxCell id="_KHCQE5RtrHX2ZRdeiGg-75" value="" style="endArrow=classic;html=1;rounded=0;exitX=0.864;exitY=0.993;exitDx=0;exitDy=0;exitPerimeter=0;" parent="1" source="_KHCQE5RtrHX2ZRdeiGg-74" edge="1">
          <mxGeometry width="50" height="50" relative="1" as="geometry">
            <mxPoint x="767" y="800" as="sourcePoint" />
            <mxPoint x="857" y="870" as="targetPoint" />
          </mxGeometry>
        </mxCell>
        <mxCell id="_KHCQE5RtrHX2ZRdeiGg-76" value="" style="endArrow=classic;html=1;rounded=0;exitX=1;exitY=0.5;exitDx=0;exitDy=0;" parent="1" source="_KHCQE5RtrHX2ZRdeiGg-68" edge="1">
          <mxGeometry width="50" height="50" relative="1" as="geometry">
            <mxPoint x="892" y="750" as="sourcePoint" />
            <mxPoint x="862" y="680" as="targetPoint" />
          </mxGeometry>
        </mxCell>
        <mxCell id="_KHCQE5RtrHX2ZRdeiGg-77" value="False" style="text;html=1;align=center;verticalAlign=middle;resizable=0;points=[];autosize=1;strokeColor=none;fillColor=none;" parent="1" vertex="1">
          <mxGeometry x="810" y="651" width="50" height="30" as="geometry" />
        </mxCell>
        <mxCell id="_KHCQE5RtrHX2ZRdeiGg-78" value="&lt;font style=&quot;font-size: 11px;&quot;&gt;output&lt;/font&gt;&lt;div&gt;&lt;font style=&quot;font-size: 11px;&quot;&gt;&quot;Nomor genre tidak valid!&quot;&lt;/font&gt;&lt;/div&gt;" style="shape=parallelogram;perimeter=parallelogramPerimeter;whiteSpace=wrap;html=1;fixedSize=1;" parent="1" vertex="1">
          <mxGeometry x="852" y="649.5" width="120" height="61" as="geometry" />
        </mxCell>
        <mxCell id="_KHCQE5RtrHX2ZRdeiGg-79" value="" style="endArrow=classic;html=1;rounded=0;exitX=0.838;exitY=0.998;exitDx=0;exitDy=0;exitPerimeter=0;" parent="1" source="_KHCQE5RtrHX2ZRdeiGg-78" edge="1">
          <mxGeometry width="50" height="50" relative="1" as="geometry">
            <mxPoint x="1042" y="736.5" as="sourcePoint" />
            <mxPoint x="982" y="710" as="targetPoint" />
          </mxGeometry>
        </mxCell>
        <mxCell id="_KHCQE5RtrHX2ZRdeiGg-80" value="" style="endArrow=classic;html=1;rounded=0;exitX=0.5;exitY=1;exitDx=0;exitDy=0;" parent="1" source="_KHCQE5RtrHX2ZRdeiGg-62" edge="1">
          <mxGeometry width="50" height="50" relative="1" as="geometry">
            <mxPoint x="714" y="760" as="sourcePoint" />
            <mxPoint x="781" y="490" as="targetPoint" />
          </mxGeometry>
        </mxCell>
        <mxCell id="_KHCQE5RtrHX2ZRdeiGg-81" value="True" style="text;html=1;align=center;verticalAlign=middle;resizable=0;points=[];autosize=1;strokeColor=none;fillColor=none;" parent="1" vertex="1">
          <mxGeometry x="774" y="450" width="50" height="30" as="geometry" />
        </mxCell>
        <mxCell id="_KHCQE5RtrHX2ZRdeiGg-82" value="False" style="text;html=1;align=center;verticalAlign=middle;resizable=0;points=[];autosize=1;strokeColor=none;fillColor=none;" parent="1" vertex="1">
          <mxGeometry x="585" y="379" width="50" height="30" as="geometry" />
        </mxCell>
        <mxCell id="_KHCQE5RtrHX2ZRdeiGg-83" value="&lt;font style=&quot;font-size: 11px;&quot;&gt;output&lt;/font&gt;&lt;div&gt;&lt;font style=&quot;font-size: 11px;&quot;&gt;&quot;Error! Pilihan tidak valid!&quot;&lt;/font&gt;&lt;/div&gt;" style="shape=parallelogram;perimeter=parallelogramPerimeter;whiteSpace=wrap;html=1;fixedSize=1;" parent="1" vertex="1">
          <mxGeometry x="1016" y="384" width="120" height="60" as="geometry" />
        </mxCell>
        <mxCell id="_KHCQE5RtrHX2ZRdeiGg-84" value="" style="endArrow=classic;html=1;rounded=0;exitX=0.75;exitY=1;exitDx=0;exitDy=0;" parent="1" source="_KHCQE5RtrHX2ZRdeiGg-83" edge="1">
          <mxGeometry width="50" height="50" relative="1" as="geometry">
            <mxPoint x="958" y="460" as="sourcePoint" />
            <mxPoint x="1148" y="444" as="targetPoint" />
          </mxGeometry>
        </mxCell>
        <mxCell id="_KHCQE5RtrHX2ZRdeiGg-85" value="" style="endArrow=classic;html=1;rounded=0;entryX=1;entryY=0.5;entryDx=0;entryDy=0;exitX=0.5;exitY=1;exitDx=0;exitDy=0;" parent="1" source="_KHCQE5RtrHX2ZRdeiGg-74" target="_KHCQE5RtrHX2ZRdeiGg-4" edge="1">
          <mxGeometry width="50" height="50" relative="1" as="geometry">
            <mxPoint x="1066" y="870" as="sourcePoint" />
            <mxPoint x="1190" y="680" as="targetPoint" />
            <Array as="points">
              <mxPoint x="777" y="940" />
              <mxPoint x="1240" y="940" />
              <mxPoint x="1240" y="250" />
            </Array>
          </mxGeometry>
        </mxCell>
        <mxCell id="_KHCQE5RtrHX2ZRdeiGg-87" value="" style="endArrow=classic;html=1;rounded=0;exitX=0.5;exitY=1;exitDx=0;exitDy=0;" parent="1" source="_KHCQE5RtrHX2ZRdeiGg-13" edge="1">
          <mxGeometry width="50" height="50" relative="1" as="geometry">
            <mxPoint x="240" y="730" as="sourcePoint" />
            <mxPoint x="780" y="940" as="targetPoint" />
            <Array as="points">
              <mxPoint x="250" y="670" />
              <mxPoint x="250" y="810" />
              <mxPoint x="250" y="940" />
              <mxPoint x="360" y="940" />
            </Array>
          </mxGeometry>
        </mxCell>
        <mxCell id="_KHCQE5RtrHX2ZRdeiGg-89" value="" style="endArrow=classic;html=1;rounded=0;exitX=0.5;exitY=1;exitDx=0;exitDy=0;" parent="1" source="_KHCQE5RtrHX2ZRdeiGg-56" edge="1">
          <mxGeometry width="50" height="50" relative="1" as="geometry">
            <mxPoint x="651" y="630" as="sourcePoint" />
            <mxPoint x="594" y="940" as="targetPoint" />
          </mxGeometry>
        </mxCell>
        <mxCell id="_KHCQE5RtrHX2ZRdeiGg-90" value="" style="endArrow=classic;html=1;rounded=0;exitX=0.5;exitY=1;exitDx=0;exitDy=0;" parent="1" source="_KHCQE5RtrHX2ZRdeiGg-51" edge="1">
          <mxGeometry width="50" height="50" relative="1" as="geometry">
            <mxPoint x="583" y="780" as="sourcePoint" />
            <mxPoint x="454" y="940" as="targetPoint" />
          </mxGeometry>
        </mxCell>
        <mxCell id="_KHCQE5RtrHX2ZRdeiGg-91" value="" style="endArrow=classic;html=1;rounded=0;exitX=0.5;exitY=1;exitDx=0;exitDy=0;" parent="1" source="_KHCQE5RtrHX2ZRdeiGg-78" edge="1">
          <mxGeometry width="50" height="50" relative="1" as="geometry">
            <mxPoint x="830" y="640" as="sourcePoint" />
            <mxPoint x="912" y="940" as="targetPoint" />
          </mxGeometry>
        </mxCell>
        <mxCell id="_KHCQE5RtrHX2ZRdeiGg-92" value="" style="endArrow=classic;html=1;rounded=0;exitX=1;exitY=0.5;exitDx=0;exitDy=0;" parent="1" source="_KHCQE5RtrHX2ZRdeiGg-62" edge="1">
          <mxGeometry width="50" height="50" relative="1" as="geometry">
            <mxPoint x="590" y="760" as="sourcePoint" />
            <mxPoint x="890" y="410" as="targetPoint" />
          </mxGeometry>
        </mxCell>
        <mxCell id="_KHCQE5RtrHX2ZRdeiGg-93" value="False" style="text;html=1;align=center;verticalAlign=middle;resizable=0;points=[];autosize=1;strokeColor=none;fillColor=none;" parent="1" vertex="1">
          <mxGeometry x="835" y="378" width="50" height="30" as="geometry" />
        </mxCell>
        <mxCell id="_KHCQE5RtrHX2ZRdeiGg-94" value="" style="endArrow=classic;html=1;rounded=0;exitX=0.5;exitY=1;exitDx=0;exitDy=0;" parent="1" source="_KHCQE5RtrHX2ZRdeiGg-83" edge="1">
          <mxGeometry width="50" height="50" relative="1" as="geometry">
            <mxPoint x="941" y="680" as="sourcePoint" />
            <mxPoint x="1071" y="940" as="targetPoint" />
          </mxGeometry>
        </mxCell>
        <mxCell id="_KHCQE5RtrHX2ZRdeiGg-95" value="False" style="text;html=1;align=center;verticalAlign=middle;resizable=0;points=[];autosize=1;strokeColor=none;fillColor=none;" parent="1" vertex="1">
          <mxGeometry x="981" y="378" width="50" height="30" as="geometry" />
        </mxCell>
        <mxCell id="_KHCQE5RtrHX2ZRdeiGg-96" value="&lt;font style=&quot;font-size: 11px;&quot;&gt;elif menu==4&lt;/font&gt;" style="rhombus;whiteSpace=wrap;html=1;" parent="1" vertex="1">
          <mxGeometry x="890" y="370" width="80" height="80" as="geometry" />
        </mxCell>
        <mxCell id="_KHCQE5RtrHX2ZRdeiGg-97" value="" style="endArrow=classic;html=1;rounded=0;exitX=1;exitY=0.5;exitDx=0;exitDy=0;entryX=0.096;entryY=0.429;entryDx=0;entryDy=0;entryPerimeter=0;" parent="1" source="_KHCQE5RtrHX2ZRdeiGg-96" target="_KHCQE5RtrHX2ZRdeiGg-83" edge="1">
          <mxGeometry width="50" height="50" relative="1" as="geometry">
            <mxPoint x="703" y="620" as="sourcePoint" />
            <mxPoint x="1043" y="410" as="targetPoint" />
            <Array as="points">
              <mxPoint x="1023" y="410" />
            </Array>
          </mxGeometry>
        </mxCell>
        <mxCell id="_KHCQE5RtrHX2ZRdeiGg-98" value="" style="endArrow=classic;html=1;rounded=0;exitX=0.5;exitY=1;exitDx=0;exitDy=0;" parent="1" source="_KHCQE5RtrHX2ZRdeiGg-96" edge="1">
          <mxGeometry width="50" height="50" relative="1" as="geometry">
            <mxPoint x="820" y="550" as="sourcePoint" />
            <mxPoint x="930" y="500" as="targetPoint" />
          </mxGeometry>
        </mxCell>
        <mxCell id="_KHCQE5RtrHX2ZRdeiGg-99" value="True" style="text;html=1;align=center;verticalAlign=middle;resizable=0;points=[];autosize=1;strokeColor=none;fillColor=none;" parent="1" vertex="1">
          <mxGeometry x="925" y="458" width="50" height="30" as="geometry" />
        </mxCell>
        <mxCell id="_KHCQE5RtrHX2ZRdeiGg-100" value="" style="endArrow=classic;html=1;rounded=0;exitX=0.675;exitY=1.008;exitDx=0;exitDy=0;exitPerimeter=0;" parent="1" source="_KHCQE5RtrHX2ZRdeiGg-63" edge="1">
          <mxGeometry width="50" height="50" relative="1" as="geometry">
            <mxPoint x="720" y="610" as="sourcePoint" />
            <mxPoint x="850" y="540" as="targetPoint" />
          </mxGeometry>
        </mxCell>
        <mxCell id="_KHCQE5RtrHX2ZRdeiGg-101" value="" style="verticalLabelPosition=bottom;verticalAlign=top;html=1;shape=offPageConnector;rounded=0;size=0.5;" parent="1" vertex="1">
          <mxGeometry x="900" y="500" width="60" height="60" as="geometry" />
        </mxCell>
        <mxCell id="_KHCQE5RtrHX2ZRdeiGg-102" value="&lt;span style=&quot;font-size: 20px;&quot;&gt;4&lt;/span&gt;" style="text;html=1;align=center;verticalAlign=middle;resizable=0;points=[];autosize=1;strokeColor=none;fillColor=none;" parent="1" vertex="1">
          <mxGeometry x="915" y="501" width="30" height="40" as="geometry" />
        </mxCell>
      </root>
    </mxGraphModel>
  </diagram>
</mxfile>
